G04 start of page 9 for group -4015 idx -4015 *
G04 Title: (unknown), toppaste *
G04 Creator: pcb 20110918 *
G04 CreationDate: Sat 02 Feb 2013 06:53:47 PM GMT UTC *
G04 For: petersen *
G04 Format: Gerber/RS-274X *
G04 PCB-Dimensions: 293000 81000 *
G04 PCB-Coordinate-Origin: lower left *
%MOIN*%
%FSLAX25Y25*%
%LNTOPPASTE*%
%ADD90R,0.0157X0.0157*%
%ADD89R,0.0945X0.0945*%
%ADD88R,0.0378X0.0378*%
%ADD87R,0.0630X0.0630*%
%ADD86R,0.0200X0.0200*%
%ADD85R,0.0360X0.0360*%
%ADD84R,0.0512X0.0512*%
G54D84*X69607Y15043D02*X70393D01*
X69607Y7957D02*X70393D01*
X47543Y74393D02*Y73607D01*
X40457Y74393D02*Y73607D01*
X22957Y74393D02*Y73607D01*
X30043Y74393D02*Y73607D01*
X60107Y15043D02*X60893D01*
X60107Y7957D02*X60893D01*
X163957Y51393D02*Y50607D01*
X171043Y51393D02*Y50607D01*
X163957Y41393D02*Y40607D01*
X171043Y41393D02*Y40607D01*
X150607Y16957D02*X151393D01*
X150607Y24043D02*X151393D01*
X233107Y71043D02*X233893D01*
X233107Y63957D02*X233893D01*
X111607Y66457D02*X112393D01*
X111607Y73543D02*X112393D01*
X170607Y66457D02*X171393D01*
X170607Y73543D02*X171393D01*
X62107Y72043D02*X62893D01*
X62107Y64957D02*X62893D01*
G54D85*X221600Y7100D02*Y5900D01*
X234500Y7100D02*Y5900D01*
G54D86*X198000Y74500D02*X204500D01*
X198000Y69500D02*X204500D01*
X198000Y64500D02*X204500D01*
X198000Y59500D02*X204500D01*
X218500D02*X225000D01*
X218500Y64500D02*X225000D01*
X218500Y69500D02*X225000D01*
X218500Y74500D02*X225000D01*
G54D84*X232405Y18681D02*Y16319D01*
X220595Y18681D02*Y16319D01*
X210607Y12957D02*X211393D01*
X210607Y20043D02*X211393D01*
X166457Y5893D02*Y5107D01*
X173543Y5893D02*Y5107D01*
X184319Y73405D02*X186681D01*
X184319Y61595D02*X186681D01*
X189957Y51393D02*Y50607D01*
X197043Y51393D02*Y50607D01*
X120457Y5893D02*Y5107D01*
X127543Y5893D02*Y5107D01*
X80457Y20893D02*Y20107D01*
X87543Y20893D02*Y20107D01*
G54D87*X192000Y12307D02*Y6008D01*
Y31992D02*Y25693D01*
G54D88*X161688Y17547D02*Y13453D01*
X167594Y25263D02*Y13453D01*
G54D89*Y28887D02*Y26997D01*
G54D88*X173500Y17547D02*Y13453D01*
G54D90*X132023Y53992D02*Y49566D01*
X128874Y53992D02*Y49566D01*
X125724Y53992D02*Y49566D01*
X122575Y53992D02*Y49566D01*
X119425Y53992D02*Y49566D01*
X116275Y53992D02*Y49566D01*
X113126Y53992D02*Y49566D01*
X109976Y53992D02*Y49566D01*
X100008Y44023D02*X104434D01*
X100008Y40874D02*X104434D01*
X100008Y37724D02*X104434D01*
X100008Y34575D02*X104434D01*
X100008Y31425D02*X104434D01*
X100008Y28275D02*X104434D01*
X100008Y25126D02*X104434D01*
X100008Y21976D02*X104434D01*
X109977Y16434D02*Y12008D01*
X113126Y16434D02*Y12008D01*
X116276Y16434D02*Y12008D01*
X119425Y16434D02*Y12008D01*
X122575Y16434D02*Y12008D01*
X125725Y16434D02*Y12008D01*
X128874Y16434D02*Y12008D01*
X132024Y16434D02*Y12008D01*
X137566Y21977D02*X141992D01*
X137566Y25126D02*X141992D01*
X137566Y28276D02*X141992D01*
X137566Y31425D02*X141992D01*
X137566Y34575D02*X141992D01*
X137566Y37725D02*X141992D01*
X137566Y40874D02*X141992D01*
X137566Y44024D02*X141992D01*
M02*
