G04 start of page 3 for group 1 idx 1 *
G04 Title: (unknown), solder *
G04 Creator: pcb 20110918 *
G04 CreationDate: Sat 02 Feb 2013 06:53:47 PM GMT UTC *
G04 For: petersen *
G04 Format: Gerber/RS-274X *
G04 PCB-Dimensions: 293000 81000 *
G04 PCB-Coordinate-Origin: lower left *
%MOIN*%
%FSLAX25Y25*%
%LNBOTTOM*%
%ADD52C,0.0380*%
%ADD51C,0.0300*%
%ADD50C,0.1280*%
%ADD49C,0.0480*%
%ADD48C,0.1285*%
%ADD47C,0.0360*%
%ADD46C,0.0600*%
%ADD45C,0.0700*%
%ADD44C,0.1440*%
%ADD43C,0.0800*%
%ADD42C,0.2937*%
%ADD41C,0.0500*%
%ADD40C,0.0400*%
%ADD39C,0.0200*%
%ADD38C,0.0350*%
%ADD37C,0.0250*%
%ADD36C,0.0100*%
%ADD35C,0.0001*%
G54D35*G36*
X205000Y30500D02*X212000Y23500D01*
X205000D01*
Y30500D01*
G37*
G36*
X194500Y33500D02*X202000D01*
Y22500D01*
X194500D01*
Y33500D01*
G37*
G36*
Y22500D02*Y33500D01*
X202000D01*
X207000Y28500D01*
Y16000D01*
X200500Y22500D01*
X194500D01*
G37*
G36*
X205500Y24500D02*X243962D01*
X243973Y24436D01*
X243999Y24361D01*
X244035Y24292D01*
X244083Y24229D01*
X244139Y24174D01*
X244204Y24130D01*
X244556Y23936D01*
X244926Y23779D01*
X245309Y23656D01*
X245700Y23567D01*
X246099Y23513D01*
X246500Y23496D01*
X246901Y23513D01*
X247300Y23567D01*
X247691Y23656D01*
X248074Y23779D01*
X248444Y23936D01*
X248500Y23967D01*
Y10000D01*
X205500D01*
Y24500D01*
G37*
G36*
X186500Y34000D02*Y22500D01*
X118000D01*
Y34000D01*
X186500D01*
G37*
G36*
X111500Y47500D02*X128000D01*
Y18500D01*
X111500D01*
Y47500D01*
G37*
G36*
X147654Y11000D02*Y21000D01*
X196654D01*
Y11000D01*
X147654D01*
G37*
G36*
X250220Y33500D02*X251500D01*
Y22500D01*
X250220D01*
Y25544D01*
X250271Y25583D01*
X250326Y25639D01*
X250370Y25704D01*
X250564Y26056D01*
X250721Y26426D01*
X250844Y26809D01*
X250933Y27200D01*
X250987Y27599D01*
X251004Y28000D01*
X250987Y28401D01*
X250933Y28800D01*
X250844Y29191D01*
X250721Y29574D01*
X250564Y29944D01*
X250374Y30298D01*
X250329Y30363D01*
X250274Y30420D01*
X250220Y30460D01*
Y33500D01*
G37*
G36*
X246502Y33486D02*X246676Y33500D01*
X250220D01*
Y30460D01*
X250210Y30468D01*
X250140Y30504D01*
X250065Y30530D01*
X249987Y30544D01*
X249908Y30545D01*
X249829Y30533D01*
X249754Y30510D01*
X249683Y30475D01*
X249618Y30429D01*
X249561Y30374D01*
X249513Y30311D01*
X249476Y30241D01*
X249451Y30166D01*
X249437Y30088D01*
X249436Y30008D01*
X249448Y29930D01*
X249471Y29854D01*
X249507Y29784D01*
X249657Y29510D01*
X249779Y29223D01*
X249875Y28926D01*
X249944Y28621D01*
X249986Y28312D01*
X250000Y28000D01*
X249986Y27688D01*
X249944Y27379D01*
X249875Y27074D01*
X249779Y26777D01*
X249657Y26490D01*
X249510Y26214D01*
X249474Y26145D01*
X249451Y26069D01*
X249440Y25991D01*
X249441Y25913D01*
X249454Y25835D01*
X249480Y25761D01*
X249516Y25691D01*
X249564Y25628D01*
X249620Y25573D01*
X249684Y25528D01*
X249755Y25493D01*
X249830Y25470D01*
X249908Y25459D01*
X249987Y25460D01*
X250064Y25473D01*
X250139Y25499D01*
X250208Y25535D01*
X250220Y25544D01*
Y22500D01*
X246502D01*
Y23496D01*
X246901Y23513D01*
X247300Y23567D01*
X247691Y23656D01*
X248074Y23779D01*
X248444Y23936D01*
X248798Y24126D01*
X248863Y24171D01*
X248920Y24226D01*
X248968Y24290D01*
X249004Y24360D01*
X249030Y24435D01*
X249044Y24513D01*
X249045Y24592D01*
X249033Y24671D01*
X249010Y24746D01*
X248975Y24817D01*
X248929Y24882D01*
X248874Y24939D01*
X248811Y24987D01*
X248741Y25024D01*
X248666Y25049D01*
X248588Y25063D01*
X248508Y25064D01*
X248430Y25052D01*
X248354Y25029D01*
X248284Y24993D01*
X248010Y24843D01*
X247723Y24721D01*
X247426Y24625D01*
X247121Y24556D01*
X246812Y24514D01*
X246502Y24500D01*
Y31500D01*
X246812Y31486D01*
X247121Y31444D01*
X247426Y31375D01*
X247723Y31279D01*
X248010Y31157D01*
X248286Y31010D01*
X248355Y30974D01*
X248431Y30951D01*
X248509Y30940D01*
X248587Y30941D01*
X248665Y30954D01*
X248739Y30980D01*
X248809Y31016D01*
X248872Y31064D01*
X248927Y31120D01*
X248972Y31184D01*
X249007Y31255D01*
X249030Y31330D01*
X249041Y31408D01*
X249040Y31487D01*
X249027Y31564D01*
X249001Y31639D01*
X248965Y31708D01*
X248917Y31771D01*
X248861Y31826D01*
X248796Y31870D01*
X248444Y32064D01*
X248074Y32221D01*
X247691Y32344D01*
X247300Y32433D01*
X246901Y32487D01*
X246502Y32504D01*
Y33486D01*
G37*
G36*
X242780Y33500D02*X246324D01*
X246500Y33486D01*
X246502Y33486D01*
Y32504D01*
X246500Y32504D01*
X246099Y32487D01*
X245700Y32433D01*
X245309Y32344D01*
X244926Y32221D01*
X244556Y32064D01*
X244202Y31874D01*
X244137Y31829D01*
X244080Y31774D01*
X244032Y31710D01*
X243996Y31640D01*
X243970Y31565D01*
X243956Y31487D01*
X243955Y31408D01*
X243967Y31329D01*
X243990Y31254D01*
X244025Y31183D01*
X244071Y31118D01*
X244126Y31061D01*
X244189Y31013D01*
X244259Y30976D01*
X244334Y30951D01*
X244412Y30937D01*
X244492Y30936D01*
X244570Y30948D01*
X244646Y30971D01*
X244716Y31007D01*
X244990Y31157D01*
X245277Y31279D01*
X245574Y31375D01*
X245879Y31444D01*
X246188Y31486D01*
X246500Y31500D01*
X246502Y31500D01*
Y24500D01*
X246500Y24500D01*
X246188Y24514D01*
X245879Y24556D01*
X245574Y24625D01*
X245277Y24721D01*
X244990Y24843D01*
X244714Y24990D01*
X244645Y25026D01*
X244569Y25049D01*
X244491Y25060D01*
X244413Y25059D01*
X244335Y25046D01*
X244261Y25020D01*
X244191Y24984D01*
X244128Y24936D01*
X244073Y24880D01*
X244028Y24816D01*
X243993Y24745D01*
X243970Y24670D01*
X243959Y24592D01*
X243960Y24513D01*
X243973Y24436D01*
X243999Y24361D01*
X244035Y24292D01*
X244083Y24229D01*
X244139Y24174D01*
X244204Y24130D01*
X244556Y23936D01*
X244926Y23779D01*
X245309Y23656D01*
X245700Y23567D01*
X246099Y23513D01*
X246500Y23496D01*
X246502Y23496D01*
Y22500D01*
X242780D01*
Y25540D01*
X242790Y25532D01*
X242860Y25496D01*
X242935Y25470D01*
X243013Y25456D01*
X243092Y25455D01*
X243171Y25467D01*
X243246Y25490D01*
X243317Y25525D01*
X243382Y25571D01*
X243439Y25626D01*
X243487Y25689D01*
X243524Y25759D01*
X243549Y25834D01*
X243563Y25912D01*
X243564Y25992D01*
X243552Y26070D01*
X243529Y26146D01*
X243493Y26216D01*
X243343Y26490D01*
X243221Y26777D01*
X243125Y27074D01*
X243056Y27379D01*
X243014Y27688D01*
X243000Y28000D01*
X243014Y28312D01*
X243056Y28621D01*
X243125Y28926D01*
X243221Y29223D01*
X243343Y29510D01*
X243490Y29786D01*
X243526Y29855D01*
X243549Y29931D01*
X243560Y30009D01*
X243559Y30087D01*
X243546Y30165D01*
X243520Y30239D01*
X243484Y30309D01*
X243436Y30372D01*
X243380Y30427D01*
X243316Y30472D01*
X243245Y30507D01*
X243170Y30530D01*
X243092Y30541D01*
X243013Y30540D01*
X242936Y30527D01*
X242861Y30501D01*
X242792Y30465D01*
X242780Y30456D01*
Y33500D01*
G37*
G36*
X238000Y22500D02*Y33500D01*
X242780D01*
Y30456D01*
X242729Y30417D01*
X242674Y30361D01*
X242630Y30296D01*
X242436Y29944D01*
X242279Y29574D01*
X242156Y29191D01*
X242067Y28800D01*
X242013Y28401D01*
X241996Y28000D01*
X242013Y27599D01*
X242067Y27200D01*
X242156Y26809D01*
X242279Y26426D01*
X242436Y26056D01*
X242626Y25702D01*
X242671Y25637D01*
X242726Y25580D01*
X242780Y25540D01*
Y22500D01*
X238000D01*
G37*
G36*
X248563Y24000D02*X251500D01*
Y13000D01*
X247000D01*
Y23527D01*
X247300Y23567D01*
X247691Y23656D01*
X248074Y23779D01*
X248444Y23936D01*
X248563Y24000D01*
G37*
G36*
X113500Y47500D02*Y39500D01*
X105500Y47500D01*
X113500D01*
G37*
G54D36*X149000Y40500D02*Y51000D01*
Y52000D02*Y48500D01*
G54D37*X141500Y61000D02*X126000Y45500D01*
G54D36*X121000Y74500D02*X162000D01*
X163500Y73000D01*
Y66500D01*
X149000Y52000D01*
G54D37*X141500Y67500D02*Y61000D01*
G54D36*X72500Y78500D02*X40000D01*
X36500Y75000D01*
X41500Y73500D02*X44500Y76500D01*
X91000Y55500D02*Y61500D01*
X86000Y57000D02*Y66500D01*
X91000Y71500D01*
G54D38*X100000Y71000D02*X96000Y67000D01*
G54D39*Y64000D02*Y58000D01*
G54D38*Y67000D02*Y64000D01*
G54D36*X41500Y39000D02*Y73500D01*
X44500Y76500D02*X73500D01*
X36500Y75000D02*Y47500D01*
X54000Y51000D02*X52000Y53000D01*
X46000D01*
X68500Y72000D02*Y59000D01*
X105500Y41000D02*Y13000D01*
X102000Y18000D02*Y41000D01*
X92000Y51000D01*
X97000Y49500D02*X105500Y41000D01*
X95500Y44000D02*X100000Y39500D01*
Y22000D01*
X96000Y18000D01*
G54D40*X93500Y8000D02*X145000D01*
X152000Y15000D01*
G54D36*X166500Y78500D02*X64500D01*
X166500Y75000D02*X165000Y76500D01*
X66000D01*
G54D37*X101000Y71000D02*X100000D01*
G54D36*X107500Y61000D02*X121000Y74500D01*
G54D38*X96000Y58000D02*X113000Y41000D01*
G54D36*X100500Y61000D02*X107500D01*
X81000D02*Y58500D01*
X96000Y43500D01*
X97500Y49000D02*X91000Y55500D01*
X93500Y49500D02*X86000Y57000D01*
X36500Y28000D02*Y24000D01*
X46500Y33000D02*Y34000D01*
X41500Y39000D01*
X36500Y24000D02*X40000Y20500D01*
G54D40*X27500Y11000D02*Y35000D01*
X30500Y38000D01*
X36500D01*
G54D36*X91500Y20500D02*X94000Y23000D01*
Y23500D01*
Y28000D02*X91000D01*
X86000Y23000D01*
X40000Y20500D02*X91500D01*
X86000Y23000D02*X58000D01*
X54000Y27000D01*
G54D40*X84000Y8000D02*X30500D01*
X27500Y11000D01*
G54D36*X54000Y27000D02*Y51000D01*
G54D41*X268500Y25000D02*X256000Y12500D01*
X268500Y30500D02*Y25000D01*
X256000Y12500D02*X239500D01*
G54D40*X240000Y30500D02*Y45500D01*
G54D36*X251500Y52500D02*Y43000D01*
X246500Y38000D01*
X251500Y52000D02*Y62500D01*
G54D40*X242500Y48000D02*X246500D01*
X240000Y45500D02*X242500Y48000D01*
G54D36*X262500Y44500D02*X261000Y43000D01*
X256500D01*
X152500Y37000D02*Y50500D01*
X157500Y37000D02*Y54500D01*
X152500Y49000D02*Y52500D01*
X168500Y65500D02*Y76500D01*
X166500Y78500D01*
X152500Y52500D02*X166500Y66500D01*
Y75000D01*
X201500Y16500D02*X192000D01*
G54D40*X190500Y17000D02*Y40000D01*
X193500Y43000D01*
G54D36*Y54000D02*Y43000D01*
X193000Y59500D02*X167000D01*
X164000Y56500D01*
X176000Y56000D02*X191500D01*
X193500Y54000D01*
X157500Y54500D02*X168500Y65500D01*
X230500Y64500D02*X238000D01*
X232500D02*X213500D01*
Y69500D02*X260000D01*
X249500Y64500D02*X236000D01*
X251500Y62500D02*X249500Y64500D01*
X262500Y67000D02*Y44500D01*
X260000Y69500D02*X262500Y67000D01*
X265000D01*
X268500Y70500D01*
G54D42*X221500Y40500D03*
D03*
G54D43*X268500Y50500D03*
Y70500D03*
G54D44*X281500Y18000D03*
Y63000D03*
G54D43*X268500Y10500D03*
Y30500D03*
G54D35*G36*
X147606Y71000D02*Y64000D01*
X154606D01*
Y71000D01*
X147606D01*
G37*
G54D45*X131894Y67500D03*
X256500Y23000D03*
Y33000D03*
Y43000D03*
Y53000D03*
X246500Y28000D03*
Y38000D03*
Y48000D03*
Y58000D03*
G54D44*X11500Y60500D03*
G54D45*X46500Y53000D03*
X36500Y48000D03*
X46500Y43000D03*
X36500Y38000D03*
X46500Y33000D03*
X36500Y28000D03*
G54D44*X11500Y20500D03*
G54D42*X71000Y40500D03*
G54D35*G36*
X78000Y64000D02*Y58000D01*
X84000D01*
Y64000D01*
X78000D01*
G37*
G54D46*X91000Y61000D03*
X101000D03*
X81000Y71000D03*
X91000D03*
X101000D03*
G54D35*G36*
X90500Y11000D02*Y5000D01*
X96500D01*
Y11000D01*
X90500D01*
G37*
G54D46*X83500Y8000D03*
G54D47*X214500Y64500D03*
Y69500D03*
X190500Y40000D03*
X193500Y43000D03*
X193000Y59500D03*
X238000Y17500D03*
X164000Y56500D03*
X126000Y45500D03*
X149000Y40500D03*
X176000Y56000D03*
X68500Y59000D03*
Y72000D03*
X157000Y14000D03*
Y18500D03*
Y25000D03*
Y29500D03*
X152500Y37000D03*
X141500Y67500D03*
X157500Y37000D03*
X198000Y25500D03*
Y30500D03*
X182500Y25500D03*
Y30500D03*
X96000Y18000D03*
X201500Y16500D03*
X102000Y18000D03*
X105500Y13000D03*
X123500Y21500D03*
X94000Y23000D03*
Y28000D03*
G54D39*G54D48*G54D49*G54D50*G54D49*G54D39*G54D51*G54D50*G54D51*G54D50*G54D48*G54D52*M02*
