G04 start of page 10 for group -3984 idx -3984 *
G04 Title: (unknown), fab *
G04 Creator: pcb 20110918 *
G04 CreationDate: Sat 02 Feb 2013 06:53:47 PM GMT UTC *
G04 For: petersen *
G04 Format: Gerber/RS-274X *
G04 PCB-Dimensions: 293000 81000 *
G04 PCB-Coordinate-Origin: lower left *
%MOIN*%
%FSLAX25Y25*%
%LNFAB*%
%ADD95C,0.0100*%
%ADD94C,0.0075*%
%ADD93C,0.0060*%
%ADD92C,0.0001*%
%ADD91R,0.0080X0.0080*%
G54D91*X71000Y40500D02*Y37300D01*
G54D92*G36*
X70454Y40647D02*X73920Y42646D01*
X74320Y41953D01*
X70853Y39954D01*
X70454Y40647D01*
G37*
G36*
X71147Y39954D02*X67680Y41953D01*
X68080Y42646D01*
X71546Y40647D01*
X71147Y39954D01*
G37*
G54D91*X69400Y40500D02*G75*G03X72600Y40500I1600J0D01*G01*
G75*G03X69400Y40500I-1600J0D01*G01*
X221500D02*Y37300D01*
G54D92*G36*
X220954Y40647D02*X224420Y42646D01*
X224820Y41953D01*
X221353Y39954D01*
X220954Y40647D01*
G37*
G36*
X221647Y39954D02*X218180Y41953D01*
X218580Y42646D01*
X222046Y40647D01*
X221647Y39954D01*
G37*
G54D91*X219900Y40500D02*G75*G03X223100Y40500I1600J0D01*G01*
G75*G03X219900Y40500I-1600J0D01*G01*
X221500D02*Y37300D01*
G54D92*G36*
X220954Y40647D02*X224420Y42646D01*
X224820Y41953D01*
X221353Y39954D01*
X220954Y40647D01*
G37*
G36*
X221647Y39954D02*X218180Y41953D01*
X218580Y42646D01*
X222046Y40647D01*
X221647Y39954D01*
G37*
G54D91*X219900Y40500D02*G75*G03X223100Y40500I1600J0D01*G01*
G75*G03X219900Y40500I-1600J0D01*G01*
X15000Y92250D02*Y89050D01*
G54D92*G36*
X14454Y92397D02*X17920Y94396D01*
X18320Y93703D01*
X14853Y91704D01*
X14454Y92397D01*
G37*
G36*
X15147Y91704D02*X11680Y93703D01*
X12080Y94396D01*
X15546Y92397D01*
X15147Y91704D01*
G37*
G54D91*X13400Y92250D02*G75*G03X16600Y92250I1600J0D01*G01*
G75*G03X13400Y92250I-1600J0D01*G01*
G54D93*X135000Y94500D02*X136500Y91500D01*
X138000Y94500D01*
X136500Y91500D02*Y88500D01*
X139800Y91800D02*X142050D01*
X139800Y88500D02*X142800D01*
X139800Y94500D02*Y88500D01*
Y94500D02*X142800D01*
X147600D02*X148350Y93750D01*
X145350Y94500D02*X147600D01*
X144600Y93750D02*X145350Y94500D01*
X144600Y93750D02*Y92250D01*
X145350Y91500D01*
X147600D01*
X148350Y90750D01*
Y89250D01*
X147600Y88500D02*X148350Y89250D01*
X145350Y88500D02*X147600D01*
X144600Y89250D02*X145350Y88500D01*
X98000Y93750D02*X98750Y94500D01*
X100250D01*
X101000Y93750D01*
X100250Y88500D02*X101000Y89250D01*
X98750Y88500D02*X100250D01*
X98000Y89250D02*X98750Y88500D01*
Y91800D02*X100250D01*
X101000Y93750D02*Y92550D01*
Y91050D02*Y89250D01*
Y91050D02*X100250Y91800D01*
X101000Y92550D02*X100250Y91800D01*
X45000Y89250D02*X45750Y88500D01*
X45000Y93750D02*Y89250D01*
Y93750D02*X45750Y94500D01*
X47250D01*
X48000Y93750D01*
Y89250D01*
X47250Y88500D02*X48000Y89250D01*
X45750Y88500D02*X47250D01*
X45000Y90000D02*X48000Y93000D01*
X49800Y88500D02*X50550D01*
X52350Y93300D02*X53550Y94500D01*
Y88500D01*
X52350D02*X54600D01*
X56400Y93750D02*X57150Y94500D01*
X59400D01*
X60150Y93750D01*
Y92250D01*
X56400Y88500D02*X60150Y92250D01*
X56400Y88500D02*X60150D01*
X62700D02*X64950Y91500D01*
Y93750D02*Y91500D01*
X64200Y94500D02*X64950Y93750D01*
X62700Y94500D02*X64200D01*
X61950Y93750D02*X62700Y94500D01*
X61950Y93750D02*Y92250D01*
X62700Y91500D01*
X64950D01*
X9900Y62100D02*X13100D01*
X9900D02*Y58900D01*
X13100D01*
Y62100D02*Y58900D01*
X9900Y22100D02*X13100D01*
X9900D02*Y18900D01*
X13100D01*
Y22100D02*Y18900D01*
X279900Y19600D02*X283100D01*
X279900D02*Y16400D01*
X283100D01*
Y19600D02*Y16400D01*
X279900Y64600D02*X283100D01*
X279900D02*Y61400D01*
X283100D01*
Y64600D02*Y61400D01*
X13400Y108850D02*X16600D01*
X13400D02*Y105650D01*
X16600D01*
Y108850D02*Y105650D01*
X135000Y109500D02*X136500Y106500D01*
X138000Y109500D01*
X136500Y106500D02*Y103500D01*
X139800Y106800D02*X142050D01*
X139800Y103500D02*X142800D01*
X139800Y109500D02*Y103500D01*
Y109500D02*X142800D01*
X147600D02*X148350Y108750D01*
X145350Y109500D02*X147600D01*
X144600Y108750D02*X145350Y109500D01*
X144600Y108750D02*Y107250D01*
X145350Y106500D01*
X147600D01*
X148350Y105750D01*
Y104250D01*
X147600Y103500D02*X148350Y104250D01*
X145350Y103500D02*X147600D01*
X144600Y104250D02*X145350Y103500D01*
X98000Y105750D02*X101000Y109500D01*
X98000Y105750D02*X101750D01*
X101000Y109500D02*Y103500D01*
X45000Y104250D02*X45750Y103500D01*
X45000Y108750D02*Y104250D01*
Y108750D02*X45750Y109500D01*
X47250D01*
X48000Y108750D01*
Y104250D01*
X47250Y103500D02*X48000Y104250D01*
X45750Y103500D02*X47250D01*
X45000Y105000D02*X48000Y108000D01*
X49800Y103500D02*X50550D01*
X52350Y108300D02*X53550Y109500D01*
Y103500D01*
X52350D02*X54600D01*
X56400Y108750D02*X57150Y109500D01*
X59400D01*
X60150Y108750D01*
Y107250D01*
X56400Y103500D02*X60150Y107250D01*
X56400Y103500D02*X60150D01*
X61950Y104250D02*X62700Y103500D01*
X61950Y105450D02*Y104250D01*
Y105450D02*X63000Y106500D01*
X63900D01*
X64950Y105450D01*
Y104250D01*
X64200Y103500D02*X64950Y104250D01*
X62700Y103500D02*X64200D01*
X61950Y107550D02*X63000Y106500D01*
X61950Y108750D02*Y107550D01*
Y108750D02*X62700Y109500D01*
X64200D01*
X64950Y108750D01*
Y107550D01*
X63900Y106500D02*X64950Y107550D01*
X267700Y50500D02*G75*G03X269300Y50500I800J0D01*G01*
G75*G03X267700Y50500I-800J0D01*G01*
Y70500D02*G75*G03X269300Y70500I800J0D01*G01*
G75*G03X267700Y70500I-800J0D01*G01*
Y10500D02*G75*G03X269300Y10500I800J0D01*G01*
G75*G03X267700Y10500I-800J0D01*G01*
Y30500D02*G75*G03X269300Y30500I800J0D01*G01*
G75*G03X267700Y30500I-800J0D01*G01*
X14200Y122250D02*G75*G03X15800Y122250I800J0D01*G01*
G75*G03X14200Y122250I-800J0D01*G01*
X135000Y124500D02*X136500Y121500D01*
X138000Y124500D01*
X136500Y121500D02*Y118500D01*
X139800Y121800D02*X142050D01*
X139800Y118500D02*X142800D01*
X139800Y124500D02*Y118500D01*
Y124500D02*X142800D01*
X147600D02*X148350Y123750D01*
X145350Y124500D02*X147600D01*
X144600Y123750D02*X145350Y124500D01*
X144600Y123750D02*Y122250D01*
X145350Y121500D01*
X147600D01*
X148350Y120750D01*
Y119250D01*
X147600Y118500D02*X148350Y119250D01*
X145350Y118500D02*X147600D01*
X144600Y119250D02*X145350Y118500D01*
X98000Y120750D02*X101000Y124500D01*
X98000Y120750D02*X101750D01*
X101000Y124500D02*Y118500D01*
X45000Y119250D02*X45750Y118500D01*
X45000Y123750D02*Y119250D01*
Y123750D02*X45750Y124500D01*
X47250D01*
X48000Y123750D01*
Y119250D01*
X47250Y118500D02*X48000Y119250D01*
X45750Y118500D02*X47250D01*
X45000Y120000D02*X48000Y123000D01*
X49800Y118500D02*X50550D01*
X52350Y119250D02*X53100Y118500D01*
X52350Y123750D02*Y119250D01*
Y123750D02*X53100Y124500D01*
X54600D01*
X55350Y123750D01*
Y119250D01*
X54600Y118500D02*X55350Y119250D01*
X53100Y118500D02*X54600D01*
X52350Y120000D02*X55350Y123000D01*
X57150Y120750D02*X60150Y124500D01*
X57150Y120750D02*X60900D01*
X60150Y124500D02*Y118500D01*
X62700Y119250D02*X63450Y118500D01*
X62700Y120450D02*Y119250D01*
Y120450D02*X63750Y121500D01*
X64650D01*
X65700Y120450D01*
Y119250D01*
X64950Y118500D02*X65700Y119250D01*
X63450Y118500D02*X64950D01*
X62700Y122550D02*X63750Y121500D01*
X62700Y123750D02*Y122550D01*
Y123750D02*X63450Y124500D01*
X64950D01*
X65700Y123750D01*
Y122550D01*
X64650Y121500D02*X65700Y122550D01*
X79800Y62200D02*X82200Y59800D01*
X79800D02*X82200Y62200D01*
X89800D02*X92200Y59800D01*
X89800D02*X92200Y62200D01*
X99800D02*X102200Y59800D01*
X99800D02*X102200Y62200D01*
X79800Y72200D02*X82200Y69800D01*
X79800D02*X82200Y72200D01*
X89800D02*X92200Y69800D01*
X89800D02*X92200Y72200D01*
X99800D02*X102200Y69800D01*
X99800D02*X102200Y72200D01*
X92300Y9200D02*X94700Y6800D01*
X92300D02*X94700Y9200D01*
X82300D02*X84700Y6800D01*
X82300D02*X84700Y9200D01*
X13800Y138450D02*X16200Y136050D01*
X13800D02*X16200Y138450D01*
X135000Y139500D02*X136500Y136500D01*
X138000Y139500D01*
X136500Y136500D02*Y133500D01*
X139800Y136800D02*X142050D01*
X139800Y133500D02*X142800D01*
X139800Y139500D02*Y133500D01*
Y139500D02*X142800D01*
X147600D02*X148350Y138750D01*
X145350Y139500D02*X147600D01*
X144600Y138750D02*X145350Y139500D01*
X144600Y138750D02*Y137250D01*
X145350Y136500D01*
X147600D01*
X148350Y135750D01*
Y134250D01*
X147600Y133500D02*X148350Y134250D01*
X145350Y133500D02*X147600D01*
X144600Y134250D02*X145350Y133500D01*
X98000Y134250D02*X98750Y133500D01*
X98000Y135450D02*Y134250D01*
Y135450D02*X99050Y136500D01*
X99950D01*
X101000Y135450D01*
Y134250D01*
X100250Y133500D02*X101000Y134250D01*
X98750Y133500D02*X100250D01*
X98000Y137550D02*X99050Y136500D01*
X98000Y138750D02*Y137550D01*
Y138750D02*X98750Y139500D01*
X100250D01*
X101000Y138750D01*
Y137550D01*
X99950Y136500D02*X101000Y137550D01*
X45000Y134250D02*X45750Y133500D01*
X45000Y138750D02*Y134250D01*
Y138750D02*X45750Y139500D01*
X47250D01*
X48000Y138750D01*
Y134250D01*
X47250Y133500D02*X48000Y134250D01*
X45750Y133500D02*X47250D01*
X45000Y135000D02*X48000Y138000D01*
X49800Y133500D02*X50550D01*
X52350Y134250D02*X53100Y133500D01*
X52350Y138750D02*Y134250D01*
Y138750D02*X53100Y139500D01*
X54600D01*
X55350Y138750D01*
Y134250D01*
X54600Y133500D02*X55350Y134250D01*
X53100Y133500D02*X54600D01*
X52350Y135000D02*X55350Y138000D01*
X57150Y138750D02*X57900Y139500D01*
X59400D01*
X60150Y138750D01*
X59400Y133500D02*X60150Y134250D01*
X57900Y133500D02*X59400D01*
X57150Y134250D02*X57900Y133500D01*
Y136800D02*X59400D01*
X60150Y138750D02*Y137550D01*
Y136050D02*Y134250D01*
Y136050D02*X59400Y136800D01*
X60150Y137550D02*X59400Y136800D01*
X61950Y134250D02*X62700Y133500D01*
X61950Y135450D02*Y134250D01*
Y135450D02*X63000Y136500D01*
X63900D01*
X64950Y135450D01*
Y134250D01*
X64200Y133500D02*X64950Y134250D01*
X62700Y133500D02*X64200D01*
X61950Y137550D02*X63000Y136500D01*
X61950Y138750D02*Y137550D01*
Y138750D02*X62700Y139500D01*
X64200D01*
X64950Y138750D01*
Y137550D01*
X63900Y136500D02*X64950Y137550D01*
X46500Y54600D02*Y51400D01*
X44900Y53000D02*X48100D01*
X36500Y49600D02*Y46400D01*
X34900Y48000D02*X38100D01*
X46500Y44600D02*Y41400D01*
X44900Y43000D02*X48100D01*
X36500Y39600D02*Y36400D01*
X34900Y38000D02*X38100D01*
X46500Y34600D02*Y31400D01*
X44900Y33000D02*X48100D01*
X36500Y29600D02*Y26400D01*
X34900Y28000D02*X38100D01*
X256500Y24600D02*Y21400D01*
X254900Y23000D02*X258100D01*
X246500Y29600D02*Y26400D01*
X244900Y28000D02*X248100D01*
X256500Y34600D02*Y31400D01*
X254900Y33000D02*X258100D01*
X246500Y39600D02*Y36400D01*
X244900Y38000D02*X248100D01*
X256500Y44600D02*Y41400D01*
X254900Y43000D02*X258100D01*
X246500Y49600D02*Y46400D01*
X244900Y48000D02*X248100D01*
X256500Y54600D02*Y51400D01*
X254900Y53000D02*X258100D01*
X246500Y59600D02*Y56400D01*
X244900Y58000D02*X248100D01*
X15000Y153850D02*Y150650D01*
X13400Y152250D02*X16600D01*
X135000Y154500D02*X136500Y151500D01*
X138000Y154500D01*
X136500Y151500D02*Y148500D01*
X139800Y151800D02*X142050D01*
X139800Y148500D02*X142800D01*
X139800Y154500D02*Y148500D01*
Y154500D02*X142800D01*
X147600D02*X148350Y153750D01*
X145350Y154500D02*X147600D01*
X144600Y153750D02*X145350Y154500D01*
X144600Y153750D02*Y152250D01*
X145350Y151500D01*
X147600D01*
X148350Y150750D01*
Y149250D01*
X147600Y148500D02*X148350Y149250D01*
X145350Y148500D02*X147600D01*
X144600Y149250D02*X145350Y148500D01*
X98000Y153300D02*X99200Y154500D01*
Y148500D01*
X98000D02*X100250D01*
X102050Y150750D02*X105050Y154500D01*
X102050Y150750D02*X105800D01*
X105050Y154500D02*Y148500D01*
X45000Y149250D02*X45750Y148500D01*
X45000Y153750D02*Y149250D01*
Y153750D02*X45750Y154500D01*
X47250D01*
X48000Y153750D01*
Y149250D01*
X47250Y148500D02*X48000Y149250D01*
X45750Y148500D02*X47250D01*
X45000Y150000D02*X48000Y153000D01*
X49800Y148500D02*X50550D01*
X52350Y149250D02*X53100Y148500D01*
X52350Y153750D02*Y149250D01*
Y153750D02*X53100Y154500D01*
X54600D01*
X55350Y153750D01*
Y149250D01*
X54600Y148500D02*X55350Y149250D01*
X53100Y148500D02*X54600D01*
X52350Y150000D02*X55350Y153000D01*
X57150Y153750D02*X57900Y154500D01*
X59400D01*
X60150Y153750D01*
X59400Y148500D02*X60150Y149250D01*
X57900Y148500D02*X59400D01*
X57150Y149250D02*X57900Y148500D01*
Y151800D02*X59400D01*
X60150Y153750D02*Y152550D01*
Y151050D02*Y149250D01*
Y151050D02*X59400Y151800D01*
X60150Y152550D02*X59400Y151800D01*
X61950Y149250D02*X62700Y148500D01*
X61950Y153750D02*Y149250D01*
Y153750D02*X62700Y154500D01*
X64200D01*
X64950Y153750D01*
Y149250D01*
X64200Y148500D02*X64950Y149250D01*
X62700Y148500D02*X64200D01*
X61950Y150000D02*X64950Y153000D01*
X151106Y67500D02*Y65900D01*
Y67500D02*X152493Y68300D01*
X151106Y67500D02*X149719Y68300D01*
X131894Y67500D02*Y65900D01*
Y67500D02*X133281Y68300D01*
X131894Y67500D02*X130507Y68300D01*
X157000Y14000D02*Y12400D01*
Y14000D02*X158387Y14800D01*
X157000Y14000D02*X155613Y14800D01*
X157000Y18500D02*Y16900D01*
Y18500D02*X158387Y19300D01*
X157000Y18500D02*X155613Y19300D01*
X164000Y56500D02*Y54900D01*
Y56500D02*X165387Y57300D01*
X164000Y56500D02*X162613Y57300D01*
X157000Y25000D02*Y23400D01*
Y25000D02*X158387Y25800D01*
X157000Y25000D02*X155613Y25800D01*
X157000Y29500D02*Y27900D01*
Y29500D02*X158387Y30300D01*
X157000Y29500D02*X155613Y30300D01*
X126000Y45500D02*Y43900D01*
Y45500D02*X127387Y46300D01*
X126000Y45500D02*X124613Y46300D01*
X149000Y40500D02*Y38900D01*
Y40500D02*X150387Y41300D01*
X149000Y40500D02*X147613Y41300D01*
X152500Y37000D02*Y35400D01*
Y37000D02*X153887Y37800D01*
X152500Y37000D02*X151113Y37800D01*
X157500Y37000D02*Y35400D01*
Y37000D02*X158887Y37800D01*
X157500Y37000D02*X156113Y37800D01*
X96000Y18000D02*Y16400D01*
Y18000D02*X97387Y18800D01*
X96000Y18000D02*X94613Y18800D01*
X102000Y18000D02*Y16400D01*
Y18000D02*X103387Y18800D01*
X102000Y18000D02*X100613Y18800D01*
X105500Y13000D02*Y11400D01*
Y13000D02*X106887Y13800D01*
X105500Y13000D02*X104113Y13800D01*
X201500Y16500D02*Y14900D01*
Y16500D02*X202887Y17300D01*
X201500Y16500D02*X200113Y17300D01*
X214500Y64500D02*Y62900D01*
Y64500D02*X215887Y65300D01*
X214500Y64500D02*X213113Y65300D01*
X214500Y69500D02*Y67900D01*
Y69500D02*X215887Y70300D01*
X214500Y69500D02*X213113Y70300D01*
X190500Y40000D02*Y38400D01*
Y40000D02*X191887Y40800D01*
X190500Y40000D02*X189113Y40800D01*
X193500Y43000D02*Y41400D01*
Y43000D02*X194887Y43800D01*
X193500Y43000D02*X192113Y43800D01*
X193000Y59500D02*Y57900D01*
Y59500D02*X194387Y60300D01*
X193000Y59500D02*X191613Y60300D01*
X176000Y56000D02*Y54400D01*
Y56000D02*X177387Y56800D01*
X176000Y56000D02*X174613Y56800D01*
X141500Y67500D02*Y65900D01*
Y67500D02*X142887Y68300D01*
X141500Y67500D02*X140113Y68300D01*
X123500Y21500D02*Y19900D01*
Y21500D02*X124887Y22300D01*
X123500Y21500D02*X122113Y22300D01*
X94000Y23000D02*Y21400D01*
Y23000D02*X95387Y23800D01*
X94000Y23000D02*X92613Y23800D01*
X94000Y28000D02*Y26400D01*
Y28000D02*X95387Y28800D01*
X94000Y28000D02*X92613Y28800D01*
X198000Y25500D02*Y23900D01*
Y25500D02*X199387Y26300D01*
X198000Y25500D02*X196613Y26300D01*
X198000Y30500D02*Y28900D01*
Y30500D02*X199387Y31300D01*
X198000Y30500D02*X196613Y31300D01*
X68500Y59000D02*Y57400D01*
Y59000D02*X69887Y59800D01*
X68500Y59000D02*X67113Y59800D01*
X68500Y72000D02*Y70400D01*
Y72000D02*X69887Y72800D01*
X68500Y72000D02*X67113Y72800D01*
X238000Y17500D02*Y15900D01*
Y17500D02*X239387Y18300D01*
X238000Y17500D02*X236613Y18300D01*
X182500Y25500D02*Y23900D01*
Y25500D02*X183887Y26300D01*
X182500Y25500D02*X181113Y26300D01*
X182500Y30500D02*Y28900D01*
Y30500D02*X183887Y31300D01*
X182500Y30500D02*X181113Y31300D01*
X15000Y167250D02*Y165650D01*
Y167250D02*X16387Y168050D01*
X15000Y167250D02*X13613Y168050D01*
X135000Y169500D02*X136500Y166500D01*
X138000Y169500D01*
X136500Y166500D02*Y163500D01*
X139800Y166800D02*X142050D01*
X139800Y163500D02*X142800D01*
X139800Y169500D02*Y163500D01*
Y169500D02*X142800D01*
X147600D02*X148350Y168750D01*
X145350Y169500D02*X147600D01*
X144600Y168750D02*X145350Y169500D01*
X144600Y168750D02*Y167250D01*
X145350Y166500D01*
X147600D01*
X148350Y165750D01*
Y164250D01*
X147600Y163500D02*X148350Y164250D01*
X145350Y163500D02*X147600D01*
X144600Y164250D02*X145350Y163500D01*
X98000Y168750D02*X98750Y169500D01*
X100250D01*
X101000Y168750D01*
X100250Y163500D02*X101000Y164250D01*
X98750Y163500D02*X100250D01*
X98000Y164250D02*X98750Y163500D01*
Y166800D02*X100250D01*
X101000Y168750D02*Y167550D01*
Y166050D02*Y164250D01*
Y166050D02*X100250Y166800D01*
X101000Y167550D02*X100250Y166800D01*
X102800Y168750D02*X103550Y169500D01*
X105800D01*
X106550Y168750D01*
Y167250D01*
X102800Y163500D02*X106550Y167250D01*
X102800Y163500D02*X106550D01*
X45000Y164250D02*X45750Y163500D01*
X45000Y168750D02*Y164250D01*
Y168750D02*X45750Y169500D01*
X47250D01*
X48000Y168750D01*
Y164250D01*
X47250Y163500D02*X48000Y164250D01*
X45750Y163500D02*X47250D01*
X45000Y165000D02*X48000Y168000D01*
X49800Y163500D02*X50550D01*
X52350Y164250D02*X53100Y163500D01*
X52350Y168750D02*Y164250D01*
Y168750D02*X53100Y169500D01*
X54600D01*
X55350Y168750D01*
Y164250D01*
X54600Y163500D02*X55350Y164250D01*
X53100Y163500D02*X54600D01*
X52350Y165000D02*X55350Y168000D01*
X57150Y168750D02*X57900Y169500D01*
X60150D01*
X60900Y168750D01*
Y167250D01*
X57150Y163500D02*X60900Y167250D01*
X57150Y163500D02*X60900D01*
X62700Y164250D02*X63450Y163500D01*
X62700Y168750D02*Y164250D01*
Y168750D02*X63450Y169500D01*
X64950D01*
X65700Y168750D01*
Y164250D01*
X64950Y163500D02*X65700Y164250D01*
X63450Y163500D02*X64950D01*
X62700Y165000D02*X65700Y168000D01*
X3000Y184500D02*X3750Y183750D01*
X750Y184500D02*X3000D01*
X0Y183750D02*X750Y184500D01*
X0Y183750D02*Y182250D01*
X750Y181500D01*
X3000D01*
X3750Y180750D01*
Y179250D01*
X3000Y178500D02*X3750Y179250D01*
X750Y178500D02*X3000D01*
X0Y179250D02*X750Y178500D01*
X5550Y181500D02*Y179250D01*
X6300Y178500D01*
X8550Y181500D02*Y177000D01*
X7800Y176250D02*X8550Y177000D01*
X6300Y176250D02*X7800D01*
X5550Y177000D02*X6300Y176250D01*
Y178500D02*X7800D01*
X8550Y179250D01*
X11100Y180750D02*Y178500D01*
Y180750D02*X11850Y181500D01*
X12600D01*
X13350Y180750D01*
Y178500D01*
Y180750D02*X14100Y181500D01*
X14850D01*
X15600Y180750D01*
Y178500D01*
X10350Y181500D02*X11100Y180750D01*
X17400Y184500D02*Y178500D01*
Y179250D02*X18150Y178500D01*
X19650D01*
X20400Y179250D01*
Y180750D02*Y179250D01*
X19650Y181500D02*X20400Y180750D01*
X18150Y181500D02*X19650D01*
X17400Y180750D02*X18150Y181500D01*
X22200Y180750D02*Y179250D01*
Y180750D02*X22950Y181500D01*
X24450D01*
X25200Y180750D01*
Y179250D01*
X24450Y178500D02*X25200Y179250D01*
X22950Y178500D02*X24450D01*
X22200Y179250D02*X22950Y178500D01*
X27000Y184500D02*Y179250D01*
X27750Y178500D01*
X0Y175250D02*X29250D01*
X41750Y184500D02*Y178500D01*
X43700Y184500D02*X44750Y183450D01*
Y179550D01*
X43700Y178500D02*X44750Y179550D01*
X41000Y178500D02*X43700D01*
X41000Y184500D02*X43700D01*
G54D94*X46550Y183000D02*Y182850D01*
G54D93*Y180750D02*Y178500D01*
X50300Y181500D02*X51050Y180750D01*
X48800Y181500D02*X50300D01*
X48050Y180750D02*X48800Y181500D01*
X48050Y180750D02*Y179250D01*
X48800Y178500D01*
X51050Y181500D02*Y179250D01*
X51800Y178500D01*
X48800D02*X50300D01*
X51050Y179250D01*
X54350Y180750D02*Y178500D01*
Y180750D02*X55100Y181500D01*
X55850D01*
X56600Y180750D01*
Y178500D01*
Y180750D02*X57350Y181500D01*
X58100D01*
X58850Y180750D01*
Y178500D01*
X53600Y181500D02*X54350Y180750D01*
X60650Y178500D02*X61400D01*
X65900Y179250D02*X66650Y178500D01*
X65900Y183750D02*X66650Y184500D01*
X65900Y183750D02*Y179250D01*
X68450Y184500D02*X69950D01*
X69200D02*Y178500D01*
X68450D02*X69950D01*
X72500Y180750D02*Y178500D01*
Y180750D02*X73250Y181500D01*
X74000D01*
X74750Y180750D01*
Y178500D01*
X71750Y181500D02*X72500Y180750D01*
X77300Y181500D02*X79550D01*
X76550Y180750D02*X77300Y181500D01*
X76550Y180750D02*Y179250D01*
X77300Y178500D01*
X79550D01*
X81350Y184500D02*Y178500D01*
Y180750D02*X82100Y181500D01*
X83600D01*
X84350Y180750D01*
Y178500D01*
X86150Y184500D02*X86900Y183750D01*
Y179250D01*
X86150Y178500D02*X86900Y179250D01*
X41000Y175250D02*X88700D01*
X96050Y178500D02*X98000D01*
X95000Y179550D02*X96050Y178500D01*
X95000Y183450D02*Y179550D01*
Y183450D02*X96050Y184500D01*
X98000D01*
X99800Y180750D02*Y179250D01*
Y180750D02*X100550Y181500D01*
X102050D01*
X102800Y180750D01*
Y179250D01*
X102050Y178500D02*X102800Y179250D01*
X100550Y178500D02*X102050D01*
X99800Y179250D02*X100550Y178500D01*
X104600Y181500D02*Y179250D01*
X105350Y178500D01*
X106850D01*
X107600Y179250D01*
Y181500D02*Y179250D01*
X110150Y180750D02*Y178500D01*
Y180750D02*X110900Y181500D01*
X111650D01*
X112400Y180750D01*
Y178500D01*
X109400Y181500D02*X110150Y180750D01*
X114950Y184500D02*Y179250D01*
X115700Y178500D01*
X114200Y182250D02*X115700D01*
X95000Y175250D02*X117200D01*
X130750Y184500D02*Y178500D01*
X130000Y184500D02*X133000D01*
X133750Y183750D01*
Y182250D01*
X133000Y181500D02*X133750Y182250D01*
X130750Y181500D02*X133000D01*
X135550Y184500D02*Y179250D01*
X136300Y178500D01*
X140050Y181500D02*X140800Y180750D01*
X138550Y181500D02*X140050D01*
X137800Y180750D02*X138550Y181500D01*
X137800Y180750D02*Y179250D01*
X138550Y178500D01*
X140800Y181500D02*Y179250D01*
X141550Y178500D01*
X138550D02*X140050D01*
X140800Y179250D01*
X144100Y184500D02*Y179250D01*
X144850Y178500D01*
X143350Y182250D02*X144850D01*
X147100Y178500D02*X149350D01*
X146350Y179250D02*X147100Y178500D01*
X146350Y180750D02*Y179250D01*
Y180750D02*X147100Y181500D01*
X148600D01*
X149350Y180750D01*
X146350Y180000D02*X149350D01*
Y180750D02*Y180000D01*
X154150Y184500D02*Y178500D01*
X153400D02*X154150Y179250D01*
X151900Y178500D02*X153400D01*
X151150Y179250D02*X151900Y178500D01*
X151150Y180750D02*Y179250D01*
Y180750D02*X151900Y181500D01*
X153400D01*
X154150Y180750D01*
X157450Y181500D02*Y180750D01*
Y179250D02*Y178500D01*
X155950Y183750D02*Y183000D01*
Y183750D02*X156700Y184500D01*
X158200D01*
X158950Y183750D01*
Y183000D01*
X157450Y181500D02*X158950Y183000D01*
X130000Y175250D02*X160750D01*
X0Y199500D02*X3000D01*
X1500D02*Y193500D01*
X4800Y199500D02*Y193500D01*
Y195750D02*X5550Y196500D01*
X7050D01*
X7800Y195750D01*
Y193500D01*
X10350D02*X12600D01*
X9600Y194250D02*X10350Y193500D01*
X9600Y195750D02*Y194250D01*
Y195750D02*X10350Y196500D01*
X11850D01*
X12600Y195750D01*
X9600Y195000D02*X12600D01*
Y195750D02*Y195000D01*
X15150Y195750D02*Y193500D01*
Y195750D02*X15900Y196500D01*
X17400D01*
X14400D02*X15150Y195750D01*
X19950Y193500D02*X22200D01*
X19200Y194250D02*X19950Y193500D01*
X19200Y195750D02*Y194250D01*
Y195750D02*X19950Y196500D01*
X21450D01*
X22200Y195750D01*
X19200Y195000D02*X22200D01*
Y195750D02*Y195000D01*
X28950Y196500D02*X29700Y195750D01*
X27450Y196500D02*X28950D01*
X26700Y195750D02*X27450Y196500D01*
X26700Y195750D02*Y194250D01*
X27450Y193500D01*
X29700Y196500D02*Y194250D01*
X30450Y193500D01*
X27450D02*X28950D01*
X29700Y194250D01*
X33000Y195750D02*Y193500D01*
Y195750D02*X33750Y196500D01*
X35250D01*
X32250D02*X33000Y195750D01*
X37800Y193500D02*X40050D01*
X37050Y194250D02*X37800Y193500D01*
X37050Y195750D02*Y194250D01*
Y195750D02*X37800Y196500D01*
X39300D01*
X40050Y195750D01*
X37050Y195000D02*X40050D01*
Y195750D02*Y195000D01*
X46800Y199500D02*X47550Y198750D01*
X45300Y199500D02*X46800D01*
X44550Y198750D02*X45300Y199500D01*
X44550Y198750D02*Y194250D01*
X45300Y193500D01*
X46800Y196800D02*X47550Y196050D01*
X44550Y196800D02*X46800D01*
X45300Y193500D02*X46800D01*
X47550Y194250D01*
Y196050D02*Y194250D01*
X55050Y199500D02*Y193500D01*
X54300D02*X55050Y194250D01*
X52800Y193500D02*X54300D01*
X52050Y194250D02*X52800Y193500D01*
X52050Y195750D02*Y194250D01*
Y195750D02*X52800Y196500D01*
X54300D01*
X55050Y195750D01*
G54D94*X56850Y198000D02*Y197850D01*
G54D93*Y195750D02*Y193500D01*
X59100Y198750D02*Y193500D01*
Y198750D02*X59850Y199500D01*
X60600D01*
X58350Y196500D02*X59850D01*
X62850Y198750D02*Y193500D01*
Y198750D02*X63600Y199500D01*
X64350D01*
X62100Y196500D02*X63600D01*
X66600Y193500D02*X68850D01*
X65850Y194250D02*X66600Y193500D01*
X65850Y195750D02*Y194250D01*
Y195750D02*X66600Y196500D01*
X68100D01*
X68850Y195750D01*
X65850Y195000D02*X68850D01*
Y195750D02*Y195000D01*
X71400Y195750D02*Y193500D01*
Y195750D02*X72150Y196500D01*
X73650D01*
X70650D02*X71400Y195750D01*
X76200Y193500D02*X78450D01*
X75450Y194250D02*X76200Y193500D01*
X75450Y195750D02*Y194250D01*
Y195750D02*X76200Y196500D01*
X77700D01*
X78450Y195750D01*
X75450Y195000D02*X78450D01*
Y195750D02*Y195000D01*
X81000Y195750D02*Y193500D01*
Y195750D02*X81750Y196500D01*
X82500D01*
X83250Y195750D01*
Y193500D01*
X80250Y196500D02*X81000Y195750D01*
X85800Y199500D02*Y194250D01*
X86550Y193500D01*
X85050Y197250D02*X86550D01*
X93750Y199500D02*Y193500D01*
X93000D02*X93750Y194250D01*
X91500Y193500D02*X93000D01*
X90750Y194250D02*X91500Y193500D01*
X90750Y195750D02*Y194250D01*
Y195750D02*X91500Y196500D01*
X93000D01*
X93750Y195750D01*
X96300D02*Y193500D01*
Y195750D02*X97050Y196500D01*
X98550D01*
X95550D02*X96300Y195750D01*
G54D94*X100350Y198000D02*Y197850D01*
G54D93*Y195750D02*Y193500D01*
X101850Y199500D02*Y194250D01*
X102600Y193500D01*
X104100Y199500D02*Y194250D01*
X104850Y193500D01*
X109800D02*X112050D01*
X112800Y194250D01*
X112050Y195000D02*X112800Y194250D01*
X109800Y195000D02*X112050D01*
X109050Y195750D02*X109800Y195000D01*
X109050Y195750D02*X109800Y196500D01*
X112050D01*
X112800Y195750D01*
X109050Y194250D02*X109800Y193500D01*
G54D94*X114600Y198000D02*Y197850D01*
G54D93*Y195750D02*Y193500D01*
X116100Y196500D02*X119100D01*
X116100Y193500D02*X119100Y196500D01*
X116100Y193500D02*X119100D01*
X121650D02*X123900D01*
X120900Y194250D02*X121650Y193500D01*
X120900Y195750D02*Y194250D01*
Y195750D02*X121650Y196500D01*
X123150D01*
X123900Y195750D01*
X120900Y195000D02*X123900D01*
Y195750D02*Y195000D01*
X126450Y193500D02*X128700D01*
X129450Y194250D01*
X128700Y195000D02*X129450Y194250D01*
X126450Y195000D02*X128700D01*
X125700Y195750D02*X126450Y195000D01*
X125700Y195750D02*X126450Y196500D01*
X128700D01*
X129450Y195750D01*
X125700Y194250D02*X126450Y193500D01*
X133950Y196500D02*Y194250D01*
X134700Y193500D01*
X136200D01*
X136950Y194250D01*
Y196500D02*Y194250D01*
X139500Y193500D02*X141750D01*
X142500Y194250D01*
X141750Y195000D02*X142500Y194250D01*
X139500Y195000D02*X141750D01*
X138750Y195750D02*X139500Y195000D01*
X138750Y195750D02*X139500Y196500D01*
X141750D01*
X142500Y195750D01*
X138750Y194250D02*X139500Y193500D01*
X145050D02*X147300D01*
X144300Y194250D02*X145050Y193500D01*
X144300Y195750D02*Y194250D01*
Y195750D02*X145050Y196500D01*
X146550D01*
X147300Y195750D01*
X144300Y195000D02*X147300D01*
Y195750D02*Y195000D01*
X152100Y199500D02*Y193500D01*
X151350D02*X152100Y194250D01*
X149850Y193500D02*X151350D01*
X149100Y194250D02*X149850Y193500D01*
X149100Y195750D02*Y194250D01*
Y195750D02*X149850Y196500D01*
X151350D01*
X152100Y195750D01*
G54D94*X156600Y198000D02*Y197850D01*
G54D93*Y195750D02*Y193500D01*
X158850Y195750D02*Y193500D01*
Y195750D02*X159600Y196500D01*
X160350D01*
X161100Y195750D01*
Y193500D01*
X158100Y196500D02*X158850Y195750D01*
X166350Y199500D02*Y194250D01*
X167100Y193500D01*
X165600Y197250D02*X167100D01*
X168600Y199500D02*Y193500D01*
Y195750D02*X169350Y196500D01*
X170850D01*
X171600Y195750D01*
Y193500D01*
G54D94*X173400Y198000D02*Y197850D01*
G54D93*Y195750D02*Y193500D01*
X175650D02*X177900D01*
X178650Y194250D01*
X177900Y195000D02*X178650Y194250D01*
X175650Y195000D02*X177900D01*
X174900Y195750D02*X175650Y195000D01*
X174900Y195750D02*X175650Y196500D01*
X177900D01*
X178650Y195750D01*
X174900Y194250D02*X175650Y193500D01*
X183150Y199500D02*Y194250D01*
X183900Y193500D01*
X187650Y196500D02*X188400Y195750D01*
X186150Y196500D02*X187650D01*
X185400Y195750D02*X186150Y196500D01*
X185400Y195750D02*Y194250D01*
X186150Y193500D01*
X188400Y196500D02*Y194250D01*
X189150Y193500D01*
X186150D02*X187650D01*
X188400Y194250D01*
X190950Y196500D02*Y194250D01*
X191700Y193500D01*
X193950Y196500D02*Y192000D01*
X193200Y191250D02*X193950Y192000D01*
X191700Y191250D02*X193200D01*
X190950Y192000D02*X191700Y191250D01*
Y193500D02*X193200D01*
X193950Y194250D01*
X195750Y195750D02*Y194250D01*
Y195750D02*X196500Y196500D01*
X198000D01*
X198750Y195750D01*
Y194250D01*
X198000Y193500D02*X198750Y194250D01*
X196500Y193500D02*X198000D01*
X195750Y194250D02*X196500Y193500D01*
X200550Y196500D02*Y194250D01*
X201300Y193500D01*
X202800D01*
X203550Y194250D01*
Y196500D02*Y194250D01*
X206100Y199500D02*Y194250D01*
X206850Y193500D01*
X205350Y197250D02*X206850D01*
X208350Y192000D02*X209850Y193500D01*
X216600Y199500D02*X217350Y198750D01*
X215100Y199500D02*X216600D01*
X214350Y198750D02*X215100Y199500D01*
X214350Y198750D02*Y194250D01*
X215100Y193500D01*
X216600Y196800D02*X217350Y196050D01*
X214350Y196800D02*X216600D01*
X215100Y193500D02*X216600D01*
X217350Y194250D01*
Y196050D02*Y194250D01*
X219150Y199500D02*X222150D01*
X219150D02*Y196500D01*
X219900Y197250D01*
X221400D01*
X222150Y196500D01*
Y194250D01*
X221400Y193500D02*X222150Y194250D01*
X219900Y193500D02*X221400D01*
X219150Y194250D02*X219900Y193500D01*
X226650Y199500D02*Y193500D01*
Y195750D02*X227400Y196500D01*
X228900D01*
X229650Y195750D01*
Y193500D01*
X231450Y195750D02*Y194250D01*
Y195750D02*X232200Y196500D01*
X233700D01*
X234450Y195750D01*
Y194250D01*
X233700Y193500D02*X234450Y194250D01*
X232200Y193500D02*X233700D01*
X231450Y194250D02*X232200Y193500D01*
X236250Y199500D02*Y194250D01*
X237000Y193500D01*
X239250D02*X241500D01*
X238500Y194250D02*X239250Y193500D01*
X238500Y195750D02*Y194250D01*
Y195750D02*X239250Y196500D01*
X240750D01*
X241500Y195750D01*
X238500Y195000D02*X241500D01*
Y195750D02*Y195000D01*
X244050Y193500D02*X246300D01*
X247050Y194250D01*
X246300Y195000D02*X247050Y194250D01*
X244050Y195000D02*X246300D01*
X243300Y195750D02*X244050Y195000D01*
X243300Y195750D02*X244050Y196500D01*
X246300D01*
X247050Y195750D01*
X243300Y194250D02*X244050Y193500D01*
X252300Y199500D02*Y194250D01*
X253050Y193500D01*
X251550Y197250D02*X253050D01*
X254550Y195750D02*Y194250D01*
Y195750D02*X255300Y196500D01*
X256800D01*
X257550Y195750D01*
Y194250D01*
X256800Y193500D02*X257550Y194250D01*
X255300Y193500D02*X256800D01*
X254550Y194250D02*X255300Y193500D01*
X260100Y199500D02*Y194250D01*
X260850Y193500D01*
X259350Y197250D02*X260850D01*
X264600Y196500D02*X265350Y195750D01*
X263100Y196500D02*X264600D01*
X262350Y195750D02*X263100Y196500D01*
X262350Y195750D02*Y194250D01*
X263100Y193500D01*
X265350Y196500D02*Y194250D01*
X266100Y193500D01*
X263100D02*X264600D01*
X265350Y194250D01*
X267900Y199500D02*Y194250D01*
X268650Y193500D01*
G54D95*X0Y81000D02*X293000D01*
X0D02*Y0D01*
X293000Y81000D02*Y0D01*
X0D02*X293000D01*
G54D93*X200000Y94500D02*Y88500D01*
Y94500D02*X202250Y91500D01*
X204500Y94500D01*
Y88500D01*
X208550Y91500D02*X209300Y90750D01*
X207050Y91500D02*X208550D01*
X206300Y90750D02*X207050Y91500D01*
X206300Y90750D02*Y89250D01*
X207050Y88500D01*
X209300Y91500D02*Y89250D01*
X210050Y88500D01*
X207050D02*X208550D01*
X209300Y89250D01*
X211850Y91500D02*X214850Y88500D01*
X211850D02*X214850Y91500D01*
G54D94*X216650Y93000D02*Y92850D01*
G54D93*Y90750D02*Y88500D01*
X218900Y90750D02*Y88500D01*
Y90750D02*X219650Y91500D01*
X220400D01*
X221150Y90750D01*
Y88500D01*
Y90750D02*X221900Y91500D01*
X222650D01*
X223400Y90750D01*
Y88500D01*
X218150Y91500D02*X218900Y90750D01*
X225200Y91500D02*Y89250D01*
X225950Y88500D01*
X227450D01*
X228200Y89250D01*
Y91500D02*Y89250D01*
X230750Y90750D02*Y88500D01*
Y90750D02*X231500Y91500D01*
X232250D01*
X233000Y90750D01*
Y88500D01*
Y90750D02*X233750Y91500D01*
X234500D01*
X235250Y90750D01*
Y88500D01*
X230000Y91500D02*X230750Y90750D01*
X240500Y94500D02*Y88500D01*
X242450Y94500D02*X243500Y93450D01*
Y89550D01*
X242450Y88500D02*X243500Y89550D01*
X239750Y88500D02*X242450D01*
X239750Y94500D02*X242450D01*
G54D94*X245300Y93000D02*Y92850D01*
G54D93*Y90750D02*Y88500D01*
X247550Y90750D02*Y88500D01*
Y90750D02*X248300Y91500D01*
X249050D01*
X249800Y90750D01*
Y88500D01*
Y90750D02*X250550Y91500D01*
X251300D01*
X252050Y90750D01*
Y88500D01*
X246800Y91500D02*X247550Y90750D01*
X254600Y88500D02*X256850D01*
X253850Y89250D02*X254600Y88500D01*
X253850Y90750D02*Y89250D01*
Y90750D02*X254600Y91500D01*
X256100D01*
X256850Y90750D01*
X253850Y90000D02*X256850D01*
Y90750D02*Y90000D01*
X259400Y90750D02*Y88500D01*
Y90750D02*X260150Y91500D01*
X260900D01*
X261650Y90750D01*
Y88500D01*
X258650Y91500D02*X259400Y90750D01*
X264200Y88500D02*X266450D01*
X267200Y89250D01*
X266450Y90000D02*X267200Y89250D01*
X264200Y90000D02*X266450D01*
X263450Y90750D02*X264200Y90000D01*
X263450Y90750D02*X264200Y91500D01*
X266450D01*
X267200Y90750D01*
X263450Y89250D02*X264200Y88500D01*
G54D94*X269000Y93000D02*Y92850D01*
G54D93*Y90750D02*Y88500D01*
X270500Y90750D02*Y89250D01*
Y90750D02*X271250Y91500D01*
X272750D01*
X273500Y90750D01*
Y89250D01*
X272750Y88500D02*X273500Y89250D01*
X271250Y88500D02*X272750D01*
X270500Y89250D02*X271250Y88500D01*
X276050Y90750D02*Y88500D01*
Y90750D02*X276800Y91500D01*
X277550D01*
X278300Y90750D01*
Y88500D01*
X275300Y91500D02*X276050Y90750D01*
X280850Y88500D02*X283100D01*
X283850Y89250D01*
X283100Y90000D02*X283850Y89250D01*
X280850Y90000D02*X283100D01*
X280100Y90750D02*X280850Y90000D01*
X280100Y90750D02*X280850Y91500D01*
X283100D01*
X283850Y90750D01*
X280100Y89250D02*X280850Y88500D01*
X285650Y92250D02*X286400D01*
X285650Y90750D02*X286400D01*
X290900Y93750D02*X291650Y94500D01*
X293900D01*
X294650Y93750D01*
Y92250D01*
X290900Y88500D02*X294650Y92250D01*
X290900Y88500D02*X294650D01*
X297200D02*X299450Y91500D01*
Y93750D02*Y91500D01*
X298700Y94500D02*X299450Y93750D01*
X297200Y94500D02*X298700D01*
X296450Y93750D02*X297200Y94500D01*
X296450Y93750D02*Y92250D01*
X297200Y91500D01*
X299450D01*
X301250Y93750D02*X302000Y94500D01*
X303500D01*
X304250Y93750D01*
X303500Y88500D02*X304250Y89250D01*
X302000Y88500D02*X303500D01*
X301250Y89250D02*X302000Y88500D01*
Y91800D02*X303500D01*
X304250Y93750D02*Y92550D01*
Y91050D02*Y89250D01*
Y91050D02*X303500Y91800D01*
X304250Y92550D02*X303500Y91800D01*
X306050Y89250D02*X306800Y88500D01*
X306050Y93750D02*Y89250D01*
Y93750D02*X306800Y94500D01*
X308300D01*
X309050Y93750D01*
Y89250D01*
X308300Y88500D02*X309050Y89250D01*
X306800Y88500D02*X308300D01*
X306050Y90000D02*X309050Y93000D01*
X310850Y88500D02*X311600D01*
X313400Y89250D02*X314150Y88500D01*
X313400Y93750D02*Y89250D01*
Y93750D02*X314150Y94500D01*
X315650D01*
X316400Y93750D01*
Y89250D01*
X315650Y88500D02*X316400Y89250D01*
X314150Y88500D02*X315650D01*
X313400Y90000D02*X316400Y93000D01*
X318200Y89250D02*X318950Y88500D01*
X318200Y93750D02*Y89250D01*
Y93750D02*X318950Y94500D01*
X320450D01*
X321200Y93750D01*
Y89250D01*
X320450Y88500D02*X321200Y89250D01*
X318950Y88500D02*X320450D01*
X318200Y90000D02*X321200Y93000D01*
X323000Y89250D02*X323750Y88500D01*
X323000Y93750D02*Y89250D01*
Y93750D02*X323750Y94500D01*
X325250D01*
X326000Y93750D01*
Y89250D01*
X325250Y88500D02*X326000Y89250D01*
X323750Y88500D02*X325250D01*
X323000Y90000D02*X326000Y93000D01*
X327800Y89250D02*X328550Y88500D01*
X327800Y93750D02*Y89250D01*
Y93750D02*X328550Y94500D01*
X330050D01*
X330800Y93750D01*
Y89250D01*
X330050Y88500D02*X330800Y89250D01*
X328550Y88500D02*X330050D01*
X327800Y90000D02*X330800Y93000D01*
X332600Y89250D02*X333350Y88500D01*
X332600Y93750D02*Y89250D01*
Y93750D02*X333350Y94500D01*
X334850D01*
X335600Y93750D01*
Y89250D01*
X334850Y88500D02*X335600Y89250D01*
X333350Y88500D02*X334850D01*
X332600Y90000D02*X335600Y93000D01*
X337400Y89250D02*X338150Y88500D01*
X337400Y93750D02*Y89250D01*
Y93750D02*X338150Y94500D01*
X339650D01*
X340400Y93750D01*
Y89250D01*
X339650Y88500D02*X340400Y89250D01*
X338150Y88500D02*X339650D01*
X337400Y90000D02*X340400Y93000D01*
X345650Y90750D02*Y88500D01*
Y90750D02*X346400Y91500D01*
X347150D01*
X347900Y90750D01*
Y88500D01*
Y90750D02*X348650Y91500D01*
X349400D01*
X350150Y90750D01*
Y88500D01*
X344900Y91500D02*X345650Y90750D01*
G54D94*X351950Y93000D02*Y92850D01*
G54D93*Y90750D02*Y88500D01*
X353450Y94500D02*Y89250D01*
X354200Y88500D01*
X356450D02*X358700D01*
X359450Y89250D01*
X358700Y90000D02*X359450Y89250D01*
X356450Y90000D02*X358700D01*
X355700Y90750D02*X356450Y90000D01*
X355700Y90750D02*X356450Y91500D01*
X358700D01*
X359450Y90750D01*
X355700Y89250D02*X356450Y88500D01*
X363950Y91500D02*Y89250D01*
X364700Y88500D01*
X365450D01*
X366200Y89250D01*
Y91500D02*Y89250D01*
X366950Y88500D01*
X367700D01*
X368450Y89250D01*
Y91500D02*Y89250D01*
G54D94*X370250Y93000D02*Y92850D01*
G54D93*Y90750D02*Y88500D01*
X374750Y94500D02*Y88500D01*
X374000D02*X374750Y89250D01*
X372500Y88500D02*X374000D01*
X371750Y89250D02*X372500Y88500D01*
X371750Y90750D02*Y89250D01*
Y90750D02*X372500Y91500D01*
X374000D01*
X374750Y90750D01*
X377300Y88500D02*X379550D01*
X376550Y89250D02*X377300Y88500D01*
X376550Y90750D02*Y89250D01*
Y90750D02*X377300Y91500D01*
X378800D01*
X379550Y90750D01*
X376550Y90000D02*X379550D01*
Y90750D02*Y90000D01*
X381350Y87000D02*X382850Y88500D01*
X387350Y89250D02*X388100Y88500D01*
X387350Y90450D02*Y89250D01*
Y90450D02*X388400Y91500D01*
X389300D01*
X390350Y90450D01*
Y89250D01*
X389600Y88500D02*X390350Y89250D01*
X388100Y88500D02*X389600D01*
X387350Y92550D02*X388400Y91500D01*
X387350Y93750D02*Y92550D01*
Y93750D02*X388100Y94500D01*
X389600D01*
X390350Y93750D01*
Y92550D01*
X389300Y91500D02*X390350Y92550D01*
X392150Y93300D02*X393350Y94500D01*
Y88500D01*
X392150D02*X394400D01*
X396200Y89250D02*X396950Y88500D01*
X396200Y93750D02*Y89250D01*
Y93750D02*X396950Y94500D01*
X398450D01*
X399200Y93750D01*
Y89250D01*
X398450Y88500D02*X399200Y89250D01*
X396950Y88500D02*X398450D01*
X396200Y90000D02*X399200Y93000D01*
X401000Y88500D02*X401750D01*
X403550Y89250D02*X404300Y88500D01*
X403550Y93750D02*Y89250D01*
Y93750D02*X404300Y94500D01*
X405800D01*
X406550Y93750D01*
Y89250D01*
X405800Y88500D02*X406550Y89250D01*
X404300Y88500D02*X405800D01*
X403550Y90000D02*X406550Y93000D01*
X408350Y89250D02*X409100Y88500D01*
X408350Y93750D02*Y89250D01*
Y93750D02*X409100Y94500D01*
X410600D01*
X411350Y93750D01*
Y89250D01*
X410600Y88500D02*X411350Y89250D01*
X409100Y88500D02*X410600D01*
X408350Y90000D02*X411350Y93000D01*
X413150Y89250D02*X413900Y88500D01*
X413150Y93750D02*Y89250D01*
Y93750D02*X413900Y94500D01*
X415400D01*
X416150Y93750D01*
Y89250D01*
X415400Y88500D02*X416150Y89250D01*
X413900Y88500D02*X415400D01*
X413150Y90000D02*X416150Y93000D01*
X417950Y89250D02*X418700Y88500D01*
X417950Y93750D02*Y89250D01*
Y93750D02*X418700Y94500D01*
X420200D01*
X420950Y93750D01*
Y89250D01*
X420200Y88500D02*X420950Y89250D01*
X418700Y88500D02*X420200D01*
X417950Y90000D02*X420950Y93000D01*
X422750Y89250D02*X423500Y88500D01*
X422750Y93750D02*Y89250D01*
Y93750D02*X423500Y94500D01*
X425000D01*
X425750Y93750D01*
Y89250D01*
X425000Y88500D02*X425750Y89250D01*
X423500Y88500D02*X425000D01*
X422750Y90000D02*X425750Y93000D01*
X427550Y89250D02*X428300Y88500D01*
X427550Y93750D02*Y89250D01*
Y93750D02*X428300Y94500D01*
X429800D01*
X430550Y93750D01*
Y89250D01*
X429800Y88500D02*X430550Y89250D01*
X428300Y88500D02*X429800D01*
X427550Y90000D02*X430550Y93000D01*
X435800Y90750D02*Y88500D01*
Y90750D02*X436550Y91500D01*
X437300D01*
X438050Y90750D01*
Y88500D01*
Y90750D02*X438800Y91500D01*
X439550D01*
X440300Y90750D01*
Y88500D01*
X435050Y91500D02*X435800Y90750D01*
G54D94*X442100Y93000D02*Y92850D01*
G54D93*Y90750D02*Y88500D01*
X443600Y94500D02*Y89250D01*
X444350Y88500D01*
X446600D02*X448850D01*
X449600Y89250D01*
X448850Y90000D02*X449600Y89250D01*
X446600Y90000D02*X448850D01*
X445850Y90750D02*X446600Y90000D01*
X445850Y90750D02*X446600Y91500D01*
X448850D01*
X449600Y90750D01*
X445850Y89250D02*X446600Y88500D01*
X454100Y94500D02*Y88500D01*
Y90750D02*X454850Y91500D01*
X456350D01*
X457100Y90750D01*
Y88500D01*
G54D94*X458900Y93000D02*Y92850D01*
G54D93*Y90750D02*Y88500D01*
X462650Y91500D02*X463400Y90750D01*
X461150Y91500D02*X462650D01*
X460400Y90750D02*X461150Y91500D01*
X460400Y90750D02*Y89250D01*
X461150Y88500D01*
X462650D01*
X463400Y89250D01*
X460400Y87000D02*X461150Y86250D01*
X462650D01*
X463400Y87000D01*
Y91500D02*Y87000D01*
X465200Y94500D02*Y88500D01*
Y90750D02*X465950Y91500D01*
X467450D01*
X468200Y90750D01*
Y88500D01*
X0Y-9500D02*X3000D01*
X3750Y-8750D01*
Y-6950D02*Y-8750D01*
X3000Y-6200D02*X3750Y-6950D01*
X750Y-6200D02*X3000D01*
X750Y-3500D02*Y-9500D01*
X0Y-3500D02*X3000D01*
X3750Y-4250D01*
Y-5450D01*
X3000Y-6200D02*X3750Y-5450D01*
X5550Y-7250D02*Y-8750D01*
Y-7250D02*X6300Y-6500D01*
X7800D01*
X8550Y-7250D01*
Y-8750D01*
X7800Y-9500D02*X8550Y-8750D01*
X6300Y-9500D02*X7800D01*
X5550Y-8750D02*X6300Y-9500D01*
X12600Y-6500D02*X13350Y-7250D01*
X11100Y-6500D02*X12600D01*
X10350Y-7250D02*X11100Y-6500D01*
X10350Y-7250D02*Y-8750D01*
X11100Y-9500D01*
X13350Y-6500D02*Y-8750D01*
X14100Y-9500D01*
X11100D02*X12600D01*
X13350Y-8750D01*
X16650Y-7250D02*Y-9500D01*
Y-7250D02*X17400Y-6500D01*
X18900D01*
X15900D02*X16650Y-7250D01*
X23700Y-3500D02*Y-9500D01*
X22950D02*X23700Y-8750D01*
X21450Y-9500D02*X22950D01*
X20700Y-8750D02*X21450Y-9500D01*
X20700Y-7250D02*Y-8750D01*
Y-7250D02*X21450Y-6500D01*
X22950D01*
X23700Y-7250D01*
X28200D02*Y-8750D01*
Y-7250D02*X28950Y-6500D01*
X30450D01*
X31200Y-7250D01*
Y-8750D01*
X30450Y-9500D02*X31200Y-8750D01*
X28950Y-9500D02*X30450D01*
X28200Y-8750D02*X28950Y-9500D01*
X33000Y-6500D02*Y-8750D01*
X33750Y-9500D01*
X35250D01*
X36000Y-8750D01*
Y-6500D02*Y-8750D01*
X38550Y-3500D02*Y-8750D01*
X39300Y-9500D01*
X37800Y-5750D02*X39300D01*
X40800Y-3500D02*Y-8750D01*
X41550Y-9500D01*
G54D94*X43050Y-5000D02*Y-5150D01*
G54D93*Y-7250D02*Y-9500D01*
X45300Y-7250D02*Y-9500D01*
Y-7250D02*X46050Y-6500D01*
X46800D01*
X47550Y-7250D01*
Y-9500D01*
X44550Y-6500D02*X45300Y-7250D01*
X50100Y-9500D02*X52350D01*
X49350Y-8750D02*X50100Y-9500D01*
X49350Y-7250D02*Y-8750D01*
Y-7250D02*X50100Y-6500D01*
X51600D01*
X52350Y-7250D01*
X49350Y-8000D02*X52350D01*
Y-7250D02*Y-8000D01*
G54D94*X56850Y-5000D02*Y-5150D01*
G54D93*Y-7250D02*Y-9500D01*
X59100D02*X61350D01*
X62100Y-8750D01*
X61350Y-8000D02*X62100Y-8750D01*
X59100Y-8000D02*X61350D01*
X58350Y-7250D02*X59100Y-8000D01*
X58350Y-7250D02*X59100Y-6500D01*
X61350D01*
X62100Y-7250D01*
X58350Y-8750D02*X59100Y-9500D01*
X67350Y-3500D02*Y-8750D01*
X68100Y-9500D01*
X66600Y-5750D02*X68100D01*
X69600Y-3500D02*Y-9500D01*
Y-7250D02*X70350Y-6500D01*
X71850D01*
X72600Y-7250D01*
Y-9500D01*
X75150D02*X77400D01*
X74400Y-8750D02*X75150Y-9500D01*
X74400Y-7250D02*Y-8750D01*
Y-7250D02*X75150Y-6500D01*
X76650D01*
X77400Y-7250D01*
X74400Y-8000D02*X77400D01*
Y-7250D02*Y-8000D01*
X82650Y-6500D02*X84900D01*
X81900Y-7250D02*X82650Y-6500D01*
X81900Y-7250D02*Y-8750D01*
X82650Y-9500D01*
X84900D01*
X87450D02*X89700D01*
X86700Y-8750D02*X87450Y-9500D01*
X86700Y-7250D02*Y-8750D01*
Y-7250D02*X87450Y-6500D01*
X88950D01*
X89700Y-7250D01*
X86700Y-8000D02*X89700D01*
Y-7250D02*Y-8000D01*
X92250Y-7250D02*Y-9500D01*
Y-7250D02*X93000Y-6500D01*
X93750D01*
X94500Y-7250D01*
Y-9500D01*
X91500Y-6500D02*X92250Y-7250D01*
X97050Y-3500D02*Y-8750D01*
X97800Y-9500D01*
X96300Y-5750D02*X97800D01*
X100050Y-9500D02*X102300D01*
X99300Y-8750D02*X100050Y-9500D01*
X99300Y-7250D02*Y-8750D01*
Y-7250D02*X100050Y-6500D01*
X101550D01*
X102300Y-7250D01*
X99300Y-8000D02*X102300D01*
Y-7250D02*Y-8000D01*
X104850Y-7250D02*Y-9500D01*
Y-7250D02*X105600Y-6500D01*
X107100D01*
X104100D02*X104850Y-7250D01*
X108900Y-3500D02*Y-8750D01*
X109650Y-9500D01*
G54D94*X111150Y-5000D02*Y-5150D01*
G54D93*Y-7250D02*Y-9500D01*
X113400Y-7250D02*Y-9500D01*
Y-7250D02*X114150Y-6500D01*
X114900D01*
X115650Y-7250D01*
Y-9500D01*
X112650Y-6500D02*X113400Y-7250D01*
X118200Y-9500D02*X120450D01*
X117450Y-8750D02*X118200Y-9500D01*
X117450Y-7250D02*Y-8750D01*
Y-7250D02*X118200Y-6500D01*
X119700D01*
X120450Y-7250D01*
X117450Y-8000D02*X120450D01*
Y-7250D02*Y-8000D01*
X124950Y-7250D02*Y-8750D01*
Y-7250D02*X125700Y-6500D01*
X127200D01*
X127950Y-7250D01*
Y-8750D01*
X127200Y-9500D02*X127950Y-8750D01*
X125700Y-9500D02*X127200D01*
X124950Y-8750D02*X125700Y-9500D01*
X130500Y-4250D02*Y-9500D01*
Y-4250D02*X131250Y-3500D01*
X132000D01*
X129750Y-6500D02*X131250D01*
X136950Y-3500D02*Y-8750D01*
X137700Y-9500D01*
X136200Y-5750D02*X137700D01*
X139200Y-3500D02*Y-9500D01*
Y-7250D02*X139950Y-6500D01*
X141450D01*
X142200Y-7250D01*
Y-9500D01*
G54D94*X144000Y-5000D02*Y-5150D01*
G54D93*Y-7250D02*Y-9500D01*
X146250D02*X148500D01*
X149250Y-8750D01*
X148500Y-8000D02*X149250Y-8750D01*
X146250Y-8000D02*X148500D01*
X145500Y-7250D02*X146250Y-8000D01*
X145500Y-7250D02*X146250Y-6500D01*
X148500D01*
X149250Y-7250D01*
X145500Y-8750D02*X146250Y-9500D01*
X153750Y-8750D02*X154500Y-9500D01*
X153750Y-7550D02*Y-8750D01*
Y-7550D02*X154800Y-6500D01*
X155700D01*
X156750Y-7550D01*
Y-8750D01*
X156000Y-9500D02*X156750Y-8750D01*
X154500Y-9500D02*X156000D01*
X153750Y-5450D02*X154800Y-6500D01*
X153750Y-4250D02*Y-5450D01*
Y-4250D02*X154500Y-3500D01*
X156000D01*
X156750Y-4250D01*
Y-5450D01*
X155700Y-6500D02*X156750Y-5450D01*
X158550Y-9500D02*X159300D01*
X161100Y-8750D02*X161850Y-9500D01*
X161100Y-4250D02*Y-8750D01*
Y-4250D02*X161850Y-3500D01*
X163350D01*
X164100Y-4250D01*
Y-8750D01*
X163350Y-9500D02*X164100Y-8750D01*
X161850Y-9500D02*X163350D01*
X161100Y-8000D02*X164100Y-5000D01*
X165900Y-8750D02*X166650Y-9500D01*
X165900Y-4250D02*Y-8750D01*
Y-4250D02*X166650Y-3500D01*
X168150D01*
X168900Y-4250D01*
Y-8750D01*
X168150Y-9500D02*X168900Y-8750D01*
X166650Y-9500D02*X168150D01*
X165900Y-8000D02*X168900Y-5000D01*
X170700Y-8750D02*X171450Y-9500D01*
X170700Y-4250D02*Y-8750D01*
Y-4250D02*X171450Y-3500D01*
X172950D01*
X173700Y-4250D01*
Y-8750D01*
X172950Y-9500D02*X173700Y-8750D01*
X171450Y-9500D02*X172950D01*
X170700Y-8000D02*X173700Y-5000D01*
X175500Y-8750D02*X176250Y-9500D01*
X175500Y-4250D02*Y-8750D01*
Y-4250D02*X176250Y-3500D01*
X177750D01*
X178500Y-4250D01*
Y-8750D01*
X177750Y-9500D02*X178500Y-8750D01*
X176250Y-9500D02*X177750D01*
X175500Y-8000D02*X178500Y-5000D01*
X180300Y-8750D02*X181050Y-9500D01*
X180300Y-4250D02*Y-8750D01*
Y-4250D02*X181050Y-3500D01*
X182550D01*
X183300Y-4250D01*
Y-8750D01*
X182550Y-9500D02*X183300Y-8750D01*
X181050Y-9500D02*X182550D01*
X180300Y-8000D02*X183300Y-5000D01*
X185100Y-8750D02*X185850Y-9500D01*
X185100Y-4250D02*Y-8750D01*
Y-4250D02*X185850Y-3500D01*
X187350D01*
X188100Y-4250D01*
Y-8750D01*
X187350Y-9500D02*X188100Y-8750D01*
X185850Y-9500D02*X187350D01*
X185100Y-8000D02*X188100Y-5000D01*
X193350Y-7250D02*Y-9500D01*
Y-7250D02*X194100Y-6500D01*
X194850D01*
X195600Y-7250D01*
Y-9500D01*
Y-7250D02*X196350Y-6500D01*
X197100D01*
X197850Y-7250D01*
Y-9500D01*
X192600Y-6500D02*X193350Y-7250D01*
G54D94*X199650Y-5000D02*Y-5150D01*
G54D93*Y-7250D02*Y-9500D01*
X201150Y-3500D02*Y-8750D01*
X201900Y-9500D01*
X206850Y-7250D02*Y-9500D01*
Y-7250D02*X207600Y-6500D01*
X209100D01*
X206100D02*X206850Y-7250D01*
X211650Y-9500D02*X213900D01*
X210900Y-8750D02*X211650Y-9500D01*
X210900Y-7250D02*Y-8750D01*
Y-7250D02*X211650Y-6500D01*
X213150D01*
X213900Y-7250D01*
X210900Y-8000D02*X213900D01*
Y-7250D02*Y-8000D01*
X216450Y-6500D02*X218700D01*
X215700Y-7250D02*X216450Y-6500D01*
X215700Y-7250D02*Y-8750D01*
X216450Y-9500D01*
X218700D01*
X221250Y-3500D02*Y-8750D01*
X222000Y-9500D01*
X220500Y-5750D02*X222000D01*
X225750Y-6500D02*X226500Y-7250D01*
X224250Y-6500D02*X225750D01*
X223500Y-7250D02*X224250Y-6500D01*
X223500Y-7250D02*Y-8750D01*
X224250Y-9500D01*
X226500Y-6500D02*Y-8750D01*
X227250Y-9500D01*
X224250D02*X225750D01*
X226500Y-8750D01*
X229800Y-7250D02*Y-9500D01*
Y-7250D02*X230550Y-6500D01*
X231300D01*
X232050Y-7250D01*
Y-9500D01*
X229050Y-6500D02*X229800Y-7250D01*
X236100Y-6500D02*X236850Y-7250D01*
X234600Y-6500D02*X236100D01*
X233850Y-7250D02*X234600Y-6500D01*
X233850Y-7250D02*Y-8750D01*
X234600Y-9500D01*
X236100D01*
X236850Y-8750D01*
X233850Y-11000D02*X234600Y-11750D01*
X236100D01*
X236850Y-11000D01*
Y-6500D02*Y-11000D01*
X238650Y-3500D02*Y-8750D01*
X239400Y-9500D01*
X241650D02*X243900D01*
X240900Y-8750D02*X241650Y-9500D01*
X240900Y-7250D02*Y-8750D01*
Y-7250D02*X241650Y-6500D01*
X243150D01*
X243900Y-7250D01*
X240900Y-8000D02*X243900D01*
Y-7250D02*Y-8000D01*
X248400Y-6500D02*X251400D01*
X255900Y-8750D02*X256650Y-9500D01*
X255900Y-4250D02*Y-8750D01*
Y-4250D02*X256650Y-3500D01*
X258150D01*
X258900Y-4250D01*
Y-8750D01*
X258150Y-9500D02*X258900Y-8750D01*
X256650Y-9500D02*X258150D01*
X255900Y-8000D02*X258900Y-5000D01*
X260700Y-11000D02*X262200Y-9500D01*
X264000Y-8750D02*X264750Y-9500D01*
X264000Y-4250D02*Y-8750D01*
Y-4250D02*X264750Y-3500D01*
X266250D01*
X267000Y-4250D01*
Y-8750D01*
X266250Y-9500D02*X267000Y-8750D01*
X264750Y-9500D02*X266250D01*
X264000Y-8000D02*X267000Y-5000D01*
X272250Y-3500D02*Y-8750D01*
X273000Y-9500D01*
X271500Y-5750D02*X273000D01*
X274500Y-7250D02*Y-8750D01*
Y-7250D02*X275250Y-6500D01*
X276750D01*
X277500Y-7250D01*
Y-8750D01*
X276750Y-9500D02*X277500Y-8750D01*
X275250Y-9500D02*X276750D01*
X274500Y-8750D02*X275250Y-9500D01*
X282000Y-4250D02*X282750Y-3500D01*
X285000D01*
X285750Y-4250D01*
Y-5750D01*
X282000Y-9500D02*X285750Y-5750D01*
X282000Y-9500D02*X285750D01*
X288300D02*X290550Y-6500D01*
Y-4250D02*Y-6500D01*
X289800Y-3500D02*X290550Y-4250D01*
X288300Y-3500D02*X289800D01*
X287550Y-4250D02*X288300Y-3500D01*
X287550Y-4250D02*Y-5750D01*
X288300Y-6500D01*
X290550D01*
X292350Y-4250D02*X293100Y-3500D01*
X294600D01*
X295350Y-4250D01*
X294600Y-9500D02*X295350Y-8750D01*
X293100Y-9500D02*X294600D01*
X292350Y-8750D02*X293100Y-9500D01*
Y-6200D02*X294600D01*
X295350Y-4250D02*Y-5450D01*
Y-6950D02*Y-8750D01*
Y-6950D02*X294600Y-6200D01*
X295350Y-5450D02*X294600Y-6200D01*
X297150Y-8750D02*X297900Y-9500D01*
X297150Y-4250D02*Y-8750D01*
Y-4250D02*X297900Y-3500D01*
X299400D01*
X300150Y-4250D01*
Y-8750D01*
X299400Y-9500D02*X300150Y-8750D01*
X297900Y-9500D02*X299400D01*
X297150Y-8000D02*X300150Y-5000D01*
X301950Y-9500D02*X302700D01*
X304500Y-8750D02*X305250Y-9500D01*
X304500Y-4250D02*Y-8750D01*
Y-4250D02*X305250Y-3500D01*
X306750D01*
X307500Y-4250D01*
Y-8750D01*
X306750Y-9500D02*X307500Y-8750D01*
X305250Y-9500D02*X306750D01*
X304500Y-8000D02*X307500Y-5000D01*
X309300Y-8750D02*X310050Y-9500D01*
X309300Y-4250D02*Y-8750D01*
Y-4250D02*X310050Y-3500D01*
X311550D01*
X312300Y-4250D01*
Y-8750D01*
X311550Y-9500D02*X312300Y-8750D01*
X310050Y-9500D02*X311550D01*
X309300Y-8000D02*X312300Y-5000D01*
X314100Y-8750D02*X314850Y-9500D01*
X314100Y-4250D02*Y-8750D01*
Y-4250D02*X314850Y-3500D01*
X316350D01*
X317100Y-4250D01*
Y-8750D01*
X316350Y-9500D02*X317100Y-8750D01*
X314850Y-9500D02*X316350D01*
X314100Y-8000D02*X317100Y-5000D01*
X318900Y-8750D02*X319650Y-9500D01*
X318900Y-4250D02*Y-8750D01*
Y-4250D02*X319650Y-3500D01*
X321150D01*
X321900Y-4250D01*
Y-8750D01*
X321150Y-9500D02*X321900Y-8750D01*
X319650Y-9500D02*X321150D01*
X318900Y-8000D02*X321900Y-5000D01*
X323700Y-8750D02*X324450Y-9500D01*
X323700Y-4250D02*Y-8750D01*
Y-4250D02*X324450Y-3500D01*
X325950D01*
X326700Y-4250D01*
Y-8750D01*
X325950Y-9500D02*X326700Y-8750D01*
X324450Y-9500D02*X325950D01*
X323700Y-8000D02*X326700Y-5000D01*
X328500Y-8750D02*X329250Y-9500D01*
X328500Y-4250D02*Y-8750D01*
Y-4250D02*X329250Y-3500D01*
X330750D01*
X331500Y-4250D01*
Y-8750D01*
X330750Y-9500D02*X331500Y-8750D01*
X329250Y-9500D02*X330750D01*
X328500Y-8000D02*X331500Y-5000D01*
X333300Y-11000D02*X334800Y-9500D01*
X336600Y-8750D02*X337350Y-9500D01*
X336600Y-7550D02*Y-8750D01*
Y-7550D02*X337650Y-6500D01*
X338550D01*
X339600Y-7550D01*
Y-8750D01*
X338850Y-9500D02*X339600Y-8750D01*
X337350Y-9500D02*X338850D01*
X336600Y-5450D02*X337650Y-6500D01*
X336600Y-4250D02*Y-5450D01*
Y-4250D02*X337350Y-3500D01*
X338850D01*
X339600Y-4250D01*
Y-5450D01*
X338550Y-6500D02*X339600Y-5450D01*
X341400Y-4700D02*X342600Y-3500D01*
Y-9500D01*
X341400D02*X343650D01*
X345450Y-8750D02*X346200Y-9500D01*
X345450Y-4250D02*Y-8750D01*
Y-4250D02*X346200Y-3500D01*
X347700D01*
X348450Y-4250D01*
Y-8750D01*
X347700Y-9500D02*X348450Y-8750D01*
X346200Y-9500D02*X347700D01*
X345450Y-8000D02*X348450Y-5000D01*
X350250Y-9500D02*X351000D01*
X352800Y-8750D02*X353550Y-9500D01*
X352800Y-4250D02*Y-8750D01*
Y-4250D02*X353550Y-3500D01*
X355050D01*
X355800Y-4250D01*
Y-8750D01*
X355050Y-9500D02*X355800Y-8750D01*
X353550Y-9500D02*X355050D01*
X352800Y-8000D02*X355800Y-5000D01*
X357600Y-8750D02*X358350Y-9500D01*
X357600Y-4250D02*Y-8750D01*
Y-4250D02*X358350Y-3500D01*
X359850D01*
X360600Y-4250D01*
Y-8750D01*
X359850Y-9500D02*X360600Y-8750D01*
X358350Y-9500D02*X359850D01*
X357600Y-8000D02*X360600Y-5000D01*
X362400Y-8750D02*X363150Y-9500D01*
X362400Y-4250D02*Y-8750D01*
Y-4250D02*X363150Y-3500D01*
X364650D01*
X365400Y-4250D01*
Y-8750D01*
X364650Y-9500D02*X365400Y-8750D01*
X363150Y-9500D02*X364650D01*
X362400Y-8000D02*X365400Y-5000D01*
X367200Y-8750D02*X367950Y-9500D01*
X367200Y-4250D02*Y-8750D01*
Y-4250D02*X367950Y-3500D01*
X369450D01*
X370200Y-4250D01*
Y-8750D01*
X369450Y-9500D02*X370200Y-8750D01*
X367950Y-9500D02*X369450D01*
X367200Y-8000D02*X370200Y-5000D01*
X372000Y-8750D02*X372750Y-9500D01*
X372000Y-4250D02*Y-8750D01*
Y-4250D02*X372750Y-3500D01*
X374250D01*
X375000Y-4250D01*
Y-8750D01*
X374250Y-9500D02*X375000Y-8750D01*
X372750Y-9500D02*X374250D01*
X372000Y-8000D02*X375000Y-5000D01*
X376800Y-8750D02*X377550Y-9500D01*
X376800Y-4250D02*Y-8750D01*
Y-4250D02*X377550Y-3500D01*
X379050D01*
X379800Y-4250D01*
Y-8750D01*
X379050Y-9500D02*X379800Y-8750D01*
X377550Y-9500D02*X379050D01*
X376800Y-8000D02*X379800Y-5000D01*
X385050Y-7250D02*Y-9500D01*
Y-7250D02*X385800Y-6500D01*
X386550D01*
X387300Y-7250D01*
Y-9500D01*
Y-7250D02*X388050Y-6500D01*
X388800D01*
X389550Y-7250D01*
Y-9500D01*
X384300Y-6500D02*X385050Y-7250D01*
G54D94*X391350Y-5000D02*Y-5150D01*
G54D93*Y-7250D02*Y-9500D01*
X392850Y-3500D02*Y-8750D01*
X393600Y-9500D01*
X395850D02*X398100D01*
X398850Y-8750D01*
X398100Y-8000D02*X398850Y-8750D01*
X395850Y-8000D02*X398100D01*
X395100Y-7250D02*X395850Y-8000D01*
X395100Y-7250D02*X395850Y-6500D01*
X398100D01*
X398850Y-7250D01*
X395100Y-8750D02*X395850Y-9500D01*
X200750Y109500D02*Y103500D01*
X202700Y109500D02*X203750Y108450D01*
Y104550D01*
X202700Y103500D02*X203750Y104550D01*
X200000Y103500D02*X202700D01*
X200000Y109500D02*X202700D01*
X207800Y106500D02*X208550Y105750D01*
X206300Y106500D02*X207800D01*
X205550Y105750D02*X206300Y106500D01*
X205550Y105750D02*Y104250D01*
X206300Y103500D01*
X208550Y106500D02*Y104250D01*
X209300Y103500D01*
X206300D02*X207800D01*
X208550Y104250D01*
X211850Y109500D02*Y104250D01*
X212600Y103500D01*
X211100Y107250D02*X212600D01*
X214850Y103500D02*X217100D01*
X214100Y104250D02*X214850Y103500D01*
X214100Y105750D02*Y104250D01*
Y105750D02*X214850Y106500D01*
X216350D01*
X217100Y105750D01*
X214100Y105000D02*X217100D01*
Y105750D02*Y105000D01*
X218900Y107250D02*X219650D01*
X218900Y105750D02*X219650D01*
X227150Y109500D02*X227900Y108750D01*
X224900Y109500D02*X227150D01*
X224150Y108750D02*X224900Y109500D01*
X224150Y108750D02*Y107250D01*
X224900Y106500D01*
X227150D01*
X227900Y105750D01*
Y104250D01*
X227150Y103500D02*X227900Y104250D01*
X224900Y103500D02*X227150D01*
X224150Y104250D02*X224900Y103500D01*
X231950Y106500D02*X232700Y105750D01*
X230450Y106500D02*X231950D01*
X229700Y105750D02*X230450Y106500D01*
X229700Y105750D02*Y104250D01*
X230450Y103500D01*
X232700Y106500D02*Y104250D01*
X233450Y103500D01*
X230450D02*X231950D01*
X232700Y104250D01*
X236000Y109500D02*Y104250D01*
X236750Y103500D01*
X235250Y107250D02*X236750D01*
X240950Y104250D02*X241700Y103500D01*
X240950Y108750D02*Y104250D01*
Y108750D02*X241700Y109500D01*
X243200D01*
X243950Y108750D01*
Y104250D01*
X243200Y103500D02*X243950Y104250D01*
X241700Y103500D02*X243200D01*
X240950Y105000D02*X243950Y108000D01*
X245750Y108750D02*X246500Y109500D01*
X248750D01*
X249500Y108750D01*
Y107250D01*
X245750Y103500D02*X249500Y107250D01*
X245750Y103500D02*X249500D01*
X254000Y109500D02*Y103500D01*
Y109500D02*X257000D01*
X254000Y106800D02*X256250D01*
X259550Y103500D02*X261800D01*
X258800Y104250D02*X259550Y103500D01*
X258800Y105750D02*Y104250D01*
Y105750D02*X259550Y106500D01*
X261050D01*
X261800Y105750D01*
X258800Y105000D02*X261800D01*
Y105750D02*Y105000D01*
X263600Y109500D02*Y103500D01*
Y104250D02*X264350Y103500D01*
X265850D01*
X266600Y104250D01*
Y105750D02*Y104250D01*
X265850Y106500D02*X266600Y105750D01*
X264350Y106500D02*X265850D01*
X263600Y105750D02*X264350Y106500D01*
X271100Y108750D02*X271850Y109500D01*
X274100D01*
X274850Y108750D01*
Y107250D01*
X271100Y103500D02*X274850Y107250D01*
X271100Y103500D02*X274850D01*
X276650Y104250D02*X277400Y103500D01*
X276650Y108750D02*Y104250D01*
Y108750D02*X277400Y109500D01*
X278900D01*
X279650Y108750D01*
Y104250D01*
X278900Y103500D02*X279650Y104250D01*
X277400Y103500D02*X278900D01*
X276650Y105000D02*X279650Y108000D01*
X281450Y108300D02*X282650Y109500D01*
Y103500D01*
X281450D02*X283700D01*
X285500Y108750D02*X286250Y109500D01*
X287750D01*
X288500Y108750D01*
X287750Y103500D02*X288500Y104250D01*
X286250Y103500D02*X287750D01*
X285500Y104250D02*X286250Y103500D01*
Y106800D02*X287750D01*
X288500Y108750D02*Y107550D01*
Y106050D02*Y104250D01*
Y106050D02*X287750Y106800D01*
X288500Y107550D02*X287750Y106800D01*
X293000Y104250D02*X293750Y103500D01*
X293000Y108750D02*Y104250D01*
Y108750D02*X293750Y109500D01*
X295250D01*
X296000Y108750D01*
Y104250D01*
X295250Y103500D02*X296000Y104250D01*
X293750Y103500D02*X295250D01*
X293000Y105000D02*X296000Y108000D01*
X300050Y109500D02*X300800Y108750D01*
X298550Y109500D02*X300050D01*
X297800Y108750D02*X298550Y109500D01*
X297800Y108750D02*Y104250D01*
X298550Y103500D01*
X300050Y106800D02*X300800Y106050D01*
X297800Y106800D02*X300050D01*
X298550Y103500D02*X300050D01*
X300800Y104250D01*
Y106050D02*Y104250D01*
X302600Y107250D02*X303350D01*
X302600Y105750D02*X303350D01*
X305150Y109500D02*X308150D01*
X305150D02*Y106500D01*
X305900Y107250D01*
X307400D01*
X308150Y106500D01*
Y104250D01*
X307400Y103500D02*X308150Y104250D01*
X305900Y103500D02*X307400D01*
X305150Y104250D02*X305900Y103500D01*
X309950Y108750D02*X310700Y109500D01*
X312200D01*
X312950Y108750D01*
X312200Y103500D02*X312950Y104250D01*
X310700Y103500D02*X312200D01*
X309950Y104250D02*X310700Y103500D01*
Y106800D02*X312200D01*
X312950Y108750D02*Y107550D01*
Y106050D02*Y104250D01*
Y106050D02*X312200Y106800D01*
X312950Y107550D02*X312200Y106800D01*
X314750Y107250D02*X315500D01*
X314750Y105750D02*X315500D01*
X317300D02*X320300Y109500D01*
X317300Y105750D02*X321050D01*
X320300Y109500D02*Y103500D01*
X323600D02*X326600Y109500D01*
X322850D02*X326600D01*
X331850D02*Y103500D01*
X331100Y109500D02*X334100D01*
X334850Y108750D01*
Y107250D01*
X334100Y106500D02*X334850Y107250D01*
X331850Y106500D02*X334100D01*
X336650Y109500D02*Y103500D01*
Y109500D02*X338900Y106500D01*
X341150Y109500D01*
Y103500D01*
X348650Y109500D02*X349400Y108750D01*
X346400Y109500D02*X348650D01*
X345650Y108750D02*X346400Y109500D01*
X345650Y108750D02*Y104250D01*
X346400Y103500D01*
X348650D01*
X349400Y104250D01*
Y105750D02*Y104250D01*
X348650Y106500D02*X349400Y105750D01*
X347150Y106500D02*X348650D01*
X351200Y109500D02*Y103500D01*
Y109500D02*X353450Y106500D01*
X355700Y109500D01*
Y103500D01*
X357500Y109500D02*X360500D01*
X359000D02*Y103500D01*
X365000Y109500D02*Y104250D01*
X365750Y103500D01*
X367250D01*
X368000Y104250D01*
Y109500D02*Y104250D01*
X369800Y109500D02*X372800D01*
X371300D02*Y103500D01*
X375650D02*X377600D01*
X374600Y104550D02*X375650Y103500D01*
X374600Y108450D02*Y104550D01*
Y108450D02*X375650Y109500D01*
X377600D01*
X200000Y123000D02*Y118500D01*
Y123000D02*X201050Y124500D01*
X202700D01*
X203750Y123000D01*
Y118500D01*
X200000Y121500D02*X203750D01*
X205550D02*Y119250D01*
X206300Y118500D01*
X207800D01*
X208550Y119250D01*
Y121500D02*Y119250D01*
X211100Y124500D02*Y119250D01*
X211850Y118500D01*
X210350Y122250D02*X211850D01*
X213350Y124500D02*Y118500D01*
Y120750D02*X214100Y121500D01*
X215600D01*
X216350Y120750D01*
Y118500D01*
X218150Y120750D02*Y119250D01*
Y120750D02*X218900Y121500D01*
X220400D01*
X221150Y120750D01*
Y119250D01*
X220400Y118500D02*X221150Y119250D01*
X218900Y118500D02*X220400D01*
X218150Y119250D02*X218900Y118500D01*
X223700Y120750D02*Y118500D01*
Y120750D02*X224450Y121500D01*
X225950D01*
X222950D02*X223700Y120750D01*
X227750Y122250D02*X228500D01*
X227750Y120750D02*X228500D01*
X233000Y124500D02*Y118500D01*
Y124500D02*X235250Y121500D01*
X237500Y124500D01*
Y118500D01*
G54D94*X239300Y123000D02*Y122850D01*
G54D93*Y120750D02*Y118500D01*
X241550Y121500D02*X243800D01*
X240800Y120750D02*X241550Y121500D01*
X240800Y120750D02*Y119250D01*
X241550Y118500D01*
X243800D01*
X245600Y124500D02*Y118500D01*
Y120750D02*X246350Y121500D01*
X247850D01*
X248600Y120750D01*
Y118500D01*
X252650Y121500D02*X253400Y120750D01*
X251150Y121500D02*X252650D01*
X250400Y120750D02*X251150Y121500D01*
X250400Y120750D02*Y119250D01*
X251150Y118500D01*
X253400Y121500D02*Y119250D01*
X254150Y118500D01*
X251150D02*X252650D01*
X253400Y119250D01*
X256700Y118500D02*X258950D01*
X255950Y119250D02*X256700Y118500D01*
X255950Y120750D02*Y119250D01*
Y120750D02*X256700Y121500D01*
X258200D01*
X258950Y120750D01*
X255950Y120000D02*X258950D01*
Y120750D02*Y120000D01*
X260750Y124500D02*Y119250D01*
X261500Y118500D01*
X266450Y124500D02*Y118500D01*
X265700Y124500D02*X268700D01*
X269450Y123750D01*
Y122250D01*
X268700Y121500D02*X269450Y122250D01*
X266450Y121500D02*X268700D01*
X272000Y118500D02*X274250D01*
X271250Y119250D02*X272000Y118500D01*
X271250Y120750D02*Y119250D01*
Y120750D02*X272000Y121500D01*
X273500D01*
X274250Y120750D01*
X271250Y120000D02*X274250D01*
Y120750D02*Y120000D01*
X276800Y124500D02*Y119250D01*
X277550Y118500D01*
X276050Y122250D02*X277550D01*
X279800Y118500D02*X282050D01*
X279050Y119250D02*X279800Y118500D01*
X279050Y120750D02*Y119250D01*
Y120750D02*X279800Y121500D01*
X281300D01*
X282050Y120750D01*
X279050Y120000D02*X282050D01*
Y120750D02*Y120000D01*
X284600Y120750D02*Y118500D01*
Y120750D02*X285350Y121500D01*
X286850D01*
X283850D02*X284600Y120750D01*
X289400Y118500D02*X291650D01*
X292400Y119250D01*
X291650Y120000D02*X292400Y119250D01*
X289400Y120000D02*X291650D01*
X288650Y120750D02*X289400Y120000D01*
X288650Y120750D02*X289400Y121500D01*
X291650D01*
X292400Y120750D01*
X288650Y119250D02*X289400Y118500D01*
X294950D02*X297200D01*
X294200Y119250D02*X294950Y118500D01*
X294200Y120750D02*Y119250D01*
Y120750D02*X294950Y121500D01*
X296450D01*
X297200Y120750D01*
X294200Y120000D02*X297200D01*
Y120750D02*Y120000D01*
X299750Y120750D02*Y118500D01*
Y120750D02*X300500Y121500D01*
X301250D01*
X302000Y120750D01*
Y118500D01*
X299000Y121500D02*X299750Y120750D01*
X200000Y139500D02*X203000D01*
X201500D02*Y133500D01*
G54D94*X204800Y138000D02*Y137850D01*
G54D93*Y135750D02*Y133500D01*
X207050Y139500D02*Y134250D01*
X207800Y133500D01*
X206300Y137250D02*X207800D01*
X209300Y139500D02*Y134250D01*
X210050Y133500D01*
X212300D02*X214550D01*
X211550Y134250D02*X212300Y133500D01*
X211550Y135750D02*Y134250D01*
Y135750D02*X212300Y136500D01*
X213800D01*
X214550Y135750D01*
X211550Y135000D02*X214550D01*
Y135750D02*Y135000D01*
X216350Y137250D02*X217100D01*
X216350Y135750D02*X217100D01*
X221600Y134250D02*X222350Y133500D01*
X221600Y138750D02*X222350Y139500D01*
X221600Y138750D02*Y134250D01*
X224150Y136500D02*Y134250D01*
X224900Y133500D01*
X226400D01*
X227150Y134250D01*
Y136500D02*Y134250D01*
X229700Y135750D02*Y133500D01*
Y135750D02*X230450Y136500D01*
X231200D01*
X231950Y135750D01*
Y133500D01*
X228950Y136500D02*X229700Y135750D01*
X233750Y139500D02*Y133500D01*
Y135750D02*X236000Y133500D01*
X233750Y135750D02*X235250Y137250D01*
X238550Y135750D02*Y133500D01*
Y135750D02*X239300Y136500D01*
X240050D01*
X240800Y135750D01*
Y133500D01*
X237800Y136500D02*X238550Y135750D01*
X242600D02*Y134250D01*
Y135750D02*X243350Y136500D01*
X244850D01*
X245600Y135750D01*
Y134250D01*
X244850Y133500D02*X245600Y134250D01*
X243350Y133500D02*X244850D01*
X242600Y134250D02*X243350Y133500D01*
X247400Y136500D02*Y134250D01*
X248150Y133500D01*
X248900D01*
X249650Y134250D01*
Y136500D02*Y134250D01*
X250400Y133500D01*
X251150D01*
X251900Y134250D01*
Y136500D02*Y134250D01*
X254450Y135750D02*Y133500D01*
Y135750D02*X255200Y136500D01*
X255950D01*
X256700Y135750D01*
Y133500D01*
X253700Y136500D02*X254450Y135750D01*
X258500Y139500D02*X259250Y138750D01*
Y134250D01*
X258500Y133500D02*X259250Y134250D01*
X263750Y136500D02*X266750D01*
X271250Y139500D02*Y133500D01*
Y139500D02*X274250D01*
X271250Y136800D02*X273500D01*
X278300Y136500D02*X279050Y135750D01*
X276800Y136500D02*X278300D01*
X276050Y135750D02*X276800Y136500D01*
X276050Y135750D02*Y134250D01*
X276800Y133500D01*
X279050Y136500D02*Y134250D01*
X279800Y133500D01*
X276800D02*X278300D01*
X279050Y134250D01*
X281600Y139500D02*Y133500D01*
Y134250D02*X282350Y133500D01*
X283850D01*
X284600Y134250D01*
Y135750D02*Y134250D01*
X283850Y136500D02*X284600Y135750D01*
X282350Y136500D02*X283850D01*
X281600Y135750D02*X282350Y136500D01*
X287150Y135750D02*Y133500D01*
Y135750D02*X287900Y136500D01*
X289400D01*
X286400D02*X287150Y135750D01*
G54D94*X291200Y138000D02*Y137850D01*
G54D93*Y135750D02*Y133500D01*
X293450Y136500D02*X295700D01*
X292700Y135750D02*X293450Y136500D01*
X292700Y135750D02*Y134250D01*
X293450Y133500D01*
X295700D01*
X299750Y136500D02*X300500Y135750D01*
X298250Y136500D02*X299750D01*
X297500Y135750D02*X298250Y136500D01*
X297500Y135750D02*Y134250D01*
X298250Y133500D01*
X300500Y136500D02*Y134250D01*
X301250Y133500D01*
X298250D02*X299750D01*
X300500Y134250D01*
X303800Y139500D02*Y134250D01*
X304550Y133500D01*
X303050Y137250D02*X304550D01*
G54D94*X306050Y138000D02*Y137850D01*
G54D93*Y135750D02*Y133500D01*
X307550Y135750D02*Y134250D01*
Y135750D02*X308300Y136500D01*
X309800D01*
X310550Y135750D01*
Y134250D01*
X309800Y133500D02*X310550Y134250D01*
X308300Y133500D02*X309800D01*
X307550Y134250D02*X308300Y133500D01*
X313100Y135750D02*Y133500D01*
Y135750D02*X313850Y136500D01*
X314600D01*
X315350Y135750D01*
Y133500D01*
X312350Y136500D02*X313100Y135750D01*
X320600Y139500D02*Y133500D01*
X322550Y139500D02*X323600Y138450D01*
Y134550D01*
X322550Y133500D02*X323600Y134550D01*
X319850Y133500D02*X322550D01*
X319850Y139500D02*X322550D01*
X326150Y135750D02*Y133500D01*
Y135750D02*X326900Y136500D01*
X328400D01*
X325400D02*X326150Y135750D01*
X332450Y136500D02*X333200Y135750D01*
X330950Y136500D02*X332450D01*
X330200Y135750D02*X330950Y136500D01*
X330200Y135750D02*Y134250D01*
X330950Y133500D01*
X333200Y136500D02*Y134250D01*
X333950Y133500D01*
X330950D02*X332450D01*
X333200Y134250D01*
X335750Y136500D02*Y134250D01*
X336500Y133500D01*
X337250D01*
X338000Y134250D01*
Y136500D02*Y134250D01*
X338750Y133500D01*
X339500D01*
X340250Y134250D01*
Y136500D02*Y134250D01*
G54D94*X342050Y138000D02*Y137850D01*
G54D93*Y135750D02*Y133500D01*
X344300Y135750D02*Y133500D01*
Y135750D02*X345050Y136500D01*
X345800D01*
X346550Y135750D01*
Y133500D01*
X343550Y136500D02*X344300Y135750D01*
X350600Y136500D02*X351350Y135750D01*
X349100Y136500D02*X350600D01*
X348350Y135750D02*X349100Y136500D01*
X348350Y135750D02*Y134250D01*
X349100Y133500D01*
X350600D01*
X351350Y134250D01*
X348350Y132000D02*X349100Y131250D01*
X350600D01*
X351350Y132000D01*
Y136500D02*Y132000D01*
M02*
