G04 start of page 2 for group 0 idx 0 *
G04 Title: (unknown), component *
G04 Creator: pcb 20110918 *
G04 CreationDate: Sat 02 Feb 2013 06:53:47 PM GMT UTC *
G04 For: petersen *
G04 Format: Gerber/RS-274X *
G04 PCB-Dimensions: 293000 81000 *
G04 PCB-Coordinate-Origin: lower left *
%MOIN*%
%FSLAX25Y25*%
%LNTOP*%
%ADD34C,0.0380*%
%ADD33C,0.0300*%
%ADD32C,0.1280*%
%ADD31C,0.0480*%
%ADD30C,0.1285*%
%ADD29C,0.0360*%
%ADD28R,0.0200X0.0200*%
%ADD27R,0.0360X0.0360*%
%ADD26R,0.0630X0.0630*%
%ADD25R,0.0945X0.0945*%
%ADD24R,0.0378X0.0378*%
%ADD23R,0.0157X0.0157*%
%ADD22R,0.0512X0.0512*%
%ADD21C,0.0600*%
%ADD20C,0.1440*%
%ADD19C,0.0800*%
%ADD18C,0.2937*%
%ADD17C,0.0150*%
%ADD16C,0.0200*%
%ADD15C,0.0250*%
%ADD14C,0.0700*%
%ADD13C,0.0400*%
%ADD12C,0.0100*%
%ADD11C,0.0001*%
G54D11*G36*
X232000Y2500D02*Y10000D01*
X262500D01*
Y2500D01*
X232000D01*
G37*
G36*
X272993Y17000D02*X273353D01*
X273376Y16713D01*
X273677Y15458D01*
X274171Y14266D01*
X274846Y13165D01*
X275000Y12985D01*
Y2500D01*
X272993D01*
Y7645D01*
X273078Y7681D01*
X273179Y7743D01*
X273269Y7819D01*
X273345Y7909D01*
X273405Y8011D01*
X273622Y8480D01*
X273789Y8969D01*
X273909Y9472D01*
X273982Y9984D01*
X274006Y10500D01*
X273982Y11016D01*
X273909Y11528D01*
X273789Y12031D01*
X273622Y12520D01*
X273410Y12992D01*
X273349Y13093D01*
X273272Y13184D01*
X273182Y13261D01*
X273080Y13323D01*
X272993Y13360D01*
Y17000D01*
G37*
G36*
X268502D02*X272993D01*
Y13360D01*
X272971Y13369D01*
X272855Y13397D01*
X272737Y13406D01*
X272619Y13397D01*
X272503Y13370D01*
X272393Y13324D01*
X272292Y13262D01*
X272202Y13186D01*
X272124Y13095D01*
X272062Y12994D01*
X272016Y12885D01*
X271989Y12769D01*
X271979Y12651D01*
X271988Y12532D01*
X272016Y12417D01*
X272063Y12308D01*
X272221Y11968D01*
X272342Y11612D01*
X272430Y11247D01*
X272482Y10875D01*
X272500Y10500D01*
X272482Y10125D01*
X272430Y9753D01*
X272342Y9388D01*
X272221Y9032D01*
X272067Y8690D01*
X272020Y8582D01*
X271993Y8467D01*
X271983Y8349D01*
X271993Y8232D01*
X272021Y8117D01*
X272066Y8008D01*
X272128Y7907D01*
X272205Y7818D01*
X272295Y7741D01*
X272395Y7680D01*
X272504Y7635D01*
X272619Y7607D01*
X272737Y7598D01*
X272855Y7608D01*
X272969Y7635D01*
X272993Y7645D01*
Y2500D01*
X268502D01*
Y4994D01*
X269016Y5018D01*
X269528Y5091D01*
X270031Y5211D01*
X270520Y5378D01*
X270992Y5590D01*
X271093Y5651D01*
X271184Y5728D01*
X271261Y5818D01*
X271323Y5920D01*
X271369Y6029D01*
X271397Y6145D01*
X271406Y6263D01*
X271397Y6381D01*
X271370Y6497D01*
X271324Y6607D01*
X271262Y6708D01*
X271186Y6798D01*
X271095Y6876D01*
X270994Y6938D01*
X270885Y6984D01*
X270769Y7011D01*
X270651Y7021D01*
X270532Y7012D01*
X270417Y6984D01*
X270308Y6937D01*
X269968Y6779D01*
X269612Y6658D01*
X269247Y6570D01*
X268875Y6518D01*
X268502Y6500D01*
Y14500D01*
X268875Y14482D01*
X269247Y14430D01*
X269612Y14342D01*
X269968Y14221D01*
X270310Y14067D01*
X270418Y14020D01*
X270533Y13993D01*
X270651Y13983D01*
X270768Y13993D01*
X270883Y14021D01*
X270992Y14066D01*
X271093Y14128D01*
X271182Y14205D01*
X271259Y14295D01*
X271320Y14395D01*
X271365Y14504D01*
X271393Y14619D01*
X271402Y14737D01*
X271392Y14855D01*
X271365Y14969D01*
X271319Y15078D01*
X271257Y15179D01*
X271181Y15269D01*
X271091Y15345D01*
X270989Y15405D01*
X270520Y15622D01*
X270031Y15789D01*
X269528Y15909D01*
X269016Y15982D01*
X268502Y16006D01*
Y17000D01*
G37*
G36*
X264007D02*X268502D01*
Y16006D01*
X268500Y16006D01*
X267984Y15982D01*
X267472Y15909D01*
X266969Y15789D01*
X266480Y15622D01*
X266008Y15410D01*
X265907Y15349D01*
X265816Y15272D01*
X265739Y15182D01*
X265677Y15080D01*
X265631Y14971D01*
X265603Y14855D01*
X265594Y14737D01*
X265603Y14619D01*
X265630Y14503D01*
X265676Y14393D01*
X265738Y14292D01*
X265814Y14202D01*
X265905Y14124D01*
X266006Y14062D01*
X266115Y14016D01*
X266231Y13989D01*
X266349Y13979D01*
X266468Y13988D01*
X266583Y14016D01*
X266692Y14063D01*
X267032Y14221D01*
X267388Y14342D01*
X267753Y14430D01*
X268125Y14482D01*
X268500Y14500D01*
X268502Y14500D01*
Y6500D01*
X268500Y6500D01*
X268125Y6518D01*
X267753Y6570D01*
X267388Y6658D01*
X267032Y6779D01*
X266690Y6933D01*
X266582Y6980D01*
X266467Y7007D01*
X266349Y7017D01*
X266232Y7007D01*
X266117Y6979D01*
X266008Y6934D01*
X265907Y6872D01*
X265818Y6795D01*
X265741Y6705D01*
X265680Y6605D01*
X265635Y6496D01*
X265607Y6381D01*
X265598Y6263D01*
X265608Y6145D01*
X265635Y6031D01*
X265681Y5922D01*
X265743Y5821D01*
X265819Y5731D01*
X265909Y5655D01*
X266011Y5595D01*
X266480Y5378D01*
X266969Y5211D01*
X267472Y5091D01*
X267984Y5018D01*
X268500Y4994D01*
X268502Y4994D01*
Y2500D01*
X264007D01*
Y7640D01*
X264029Y7631D01*
X264145Y7603D01*
X264263Y7594D01*
X264381Y7603D01*
X264497Y7630D01*
X264607Y7676D01*
X264708Y7738D01*
X264798Y7814D01*
X264876Y7905D01*
X264938Y8006D01*
X264984Y8115D01*
X265011Y8231D01*
X265021Y8349D01*
X265012Y8468D01*
X264984Y8583D01*
X264937Y8692D01*
X264779Y9032D01*
X264658Y9388D01*
X264570Y9753D01*
X264518Y10125D01*
X264500Y10500D01*
X264518Y10875D01*
X264570Y11247D01*
X264658Y11612D01*
X264779Y11968D01*
X264933Y12310D01*
X264980Y12418D01*
X265007Y12533D01*
X265017Y12651D01*
X265007Y12768D01*
X264979Y12883D01*
X264934Y12992D01*
X264872Y13093D01*
X264795Y13182D01*
X264705Y13259D01*
X264605Y13320D01*
X264496Y13365D01*
X264381Y13393D01*
X264263Y13402D01*
X264145Y13392D01*
X264031Y13365D01*
X264007Y13355D01*
Y17000D01*
G37*
G36*
X255000D02*X264007D01*
Y13355D01*
X263922Y13319D01*
X263821Y13257D01*
X263731Y13181D01*
X263655Y13091D01*
X263595Y12989D01*
X263378Y12520D01*
X263211Y12031D01*
X263091Y11528D01*
X263018Y11016D01*
X262994Y10500D01*
X263018Y9984D01*
X263091Y9472D01*
X263211Y8969D01*
X263378Y8480D01*
X263590Y8008D01*
X263651Y7907D01*
X263728Y7816D01*
X263818Y7739D01*
X263920Y7677D01*
X264007Y7640D01*
Y2500D01*
X255000D01*
Y17000D01*
G37*
G36*
X254000D02*Y9000D01*
X246000D01*
X254000Y17000D01*
G37*
G36*
X171500Y19500D02*X192500D01*
Y11500D01*
X171500D01*
Y19500D01*
G37*
G36*
X146000D02*X163500D01*
Y11500D01*
X146000D01*
Y19500D01*
G37*
G36*
X183000D02*X198500D01*
Y2000D01*
X183000D01*
Y19500D01*
G37*
G36*
X226500Y9000D02*Y2000D01*
X196500D01*
Y2198D01*
X196581Y2393D01*
X196636Y2623D01*
X196650Y2858D01*
X196648Y4538D01*
X196717Y4616D01*
X196841Y4817D01*
X196931Y5035D01*
X196986Y5265D01*
X197005Y5500D01*
X196986Y5735D01*
X196931Y5965D01*
X196841Y6183D01*
X196717Y6384D01*
X196646Y6468D01*
X196643Y9000D01*
X226500D01*
G37*
G36*
X111500Y45000D02*X123240D01*
X123329Y44632D01*
X123497Y44225D01*
X123728Y43849D01*
X124014Y43514D01*
X124349Y43228D01*
X124725Y42997D01*
X125132Y42829D01*
X125561Y42726D01*
X126000Y42691D01*
X126439Y42726D01*
X126868Y42829D01*
X127275Y42997D01*
X127651Y43228D01*
X127986Y43514D01*
X128272Y43849D01*
X128503Y44225D01*
X128671Y44632D01*
X128760Y45000D01*
X131000D01*
Y41059D01*
X130995Y41000D01*
X131014Y40765D01*
X131069Y40535D01*
X131159Y40317D01*
X131283Y40116D01*
X131436Y39936D01*
X131481Y39898D01*
X131500Y39879D01*
Y37500D01*
X111500D01*
Y45000D01*
G37*
G36*
Y27000D02*X129500D01*
Y21500D01*
X126300D01*
X126274Y21939D01*
X126171Y22368D01*
X126003Y22775D01*
X125772Y23151D01*
X125486Y23486D01*
X125151Y23772D01*
X124775Y24003D01*
X124368Y24171D01*
X123939Y24274D01*
X123500Y24309D01*
X123061Y24274D01*
X122632Y24171D01*
X122225Y24003D01*
X121849Y23772D01*
X121514Y23486D01*
X121228Y23151D01*
X120997Y22775D01*
X120829Y22368D01*
X120726Y21939D01*
X120691Y21500D01*
X111500D01*
Y27000D01*
G37*
G36*
Y42500D02*X131000D01*
Y41059D01*
X130995Y41000D01*
X131014Y40765D01*
X131069Y40535D01*
X131159Y40317D01*
X131283Y40116D01*
X131436Y39936D01*
X131481Y39898D01*
X133500Y37879D01*
Y24500D01*
X111500D01*
Y42500D01*
G37*
G36*
X124500Y25500D02*Y29500D01*
X133500D01*
X135828Y27172D01*
X135885Y27034D01*
X135967Y26899D01*
X136070Y26780D01*
X136162Y26701D01*
X136070Y26622D01*
X135967Y26503D01*
X135885Y26368D01*
X135825Y26223D01*
X135788Y26070D01*
X135779Y25913D01*
X135788Y24182D01*
X135825Y24029D01*
X135885Y23884D01*
X135967Y23749D01*
X136070Y23630D01*
X136161Y23552D01*
X136070Y23473D01*
X135967Y23354D01*
X135885Y23219D01*
X135825Y23074D01*
X135788Y22921D01*
X135779Y22764D01*
X135788Y21033D01*
X135825Y20880D01*
X135885Y20735D01*
X135967Y20600D01*
X136070Y20481D01*
X136189Y20378D01*
X136324Y20296D01*
X136469Y20236D01*
X136622Y20199D01*
X136779Y20190D01*
X142801Y20199D01*
X143500Y19500D01*
X147048D01*
X147057Y14241D01*
X147094Y14088D01*
X147154Y13943D01*
X147236Y13808D01*
X147339Y13689D01*
X147458Y13586D01*
X147593Y13504D01*
X147738Y13444D01*
X147891Y13407D01*
X148048Y13398D01*
X150500Y13402D01*
Y11500D01*
X138500D01*
X133804Y16196D01*
X133802Y17378D01*
X133765Y17531D01*
X133705Y17676D01*
X133623Y17811D01*
X133520Y17930D01*
X133401Y18033D01*
X133266Y18115D01*
X133121Y18175D01*
X132968Y18212D01*
X132811Y18221D01*
X131784Y18216D01*
X124500Y25500D01*
G37*
G36*
X114000Y45000D02*Y43500D01*
X110000D01*
Y45000D01*
X114000D01*
G37*
G36*
X184500Y32000D02*X200500D01*
Y22500D01*
X184500D01*
Y32000D01*
G37*
G36*
X194500Y54000D02*X203500D01*
Y51248D01*
X197252Y45000D01*
X195470D01*
X195151Y45272D01*
X194775Y45503D01*
X194500Y45616D01*
Y54000D01*
G37*
G36*
X161000Y34000D02*X200500D01*
Y22500D01*
X161000D01*
Y34000D01*
G37*
G36*
X156621D02*X161000D01*
Y29500D01*
X161028Y29029D01*
X161138Y28570D01*
X161319Y28134D01*
X161565Y27731D01*
X161872Y27372D01*
X161874Y27371D01*
X161878Y22500D01*
X154950D01*
X154943Y26759D01*
X154906Y26912D01*
X154846Y27057D01*
X154764Y27192D01*
X154661Y27311D01*
X154542Y27414D01*
X154407Y27496D01*
X154262Y27556D01*
X154109Y27593D01*
X153952Y27602D01*
X147891Y27593D01*
X147738Y27556D01*
X147593Y27496D01*
X147500Y27439D01*
Y30379D01*
X149121Y32000D01*
X153941D01*
X154000Y31995D01*
X154235Y32014D01*
X154235Y32014D01*
X154465Y32069D01*
X154683Y32159D01*
X154884Y32283D01*
X155064Y32436D01*
X155102Y32481D01*
X156621Y34000D01*
G37*
G36*
X147500Y28000D02*X156500D01*
Y22000D01*
X147500D01*
Y28000D01*
G37*
G54D12*X161500Y15312D02*X161688Y15500D01*
X125725Y14221D02*Y10275D01*
X126500Y9500D01*
Y6543D01*
X127543Y5500D01*
X210000Y13000D02*X215000D01*
X217000Y15000D01*
X221500D01*
X201500Y16500D02*X204000D01*
X207000Y19500D01*
X211500D01*
X238000Y17500D02*X232405D01*
X172500Y5000D02*X195000D01*
X166457Y5500D02*X127543D01*
X195000Y5000D02*X195500Y5500D01*
X139779Y44024D02*X156524D01*
X139779Y40874D02*X135626D01*
X134500Y42000D01*
Y45500D01*
X146500Y40500D02*X149000D01*
X171000Y46000D02*Y41043D01*
X136000Y47000D02*X156000D01*
X135000Y49000D02*X155000D01*
X168000Y46000D02*X176000D01*
X178000Y48000D01*
G54D13*X164000Y40500D02*Y29500D01*
G54D12*X148500Y33500D02*X154000D01*
X157500Y37000D01*
X246500Y38000D02*X266500D01*
G54D14*X256500Y33000D02*Y6500D01*
G54D12*X266500Y38000D02*X268500Y40000D01*
Y50500D01*
G54D15*X198000Y42000D02*Y24500D01*
G54D12*X134500Y45500D02*X136000Y47000D01*
X132500Y41000D02*Y46500D01*
X135000Y49000D01*
X139779Y37725D02*X135775D01*
X132500Y41000D01*
X139779Y34575D02*X143575D01*
X139779Y31425D02*X143425D01*
X139779Y28276D02*X143276D01*
X143575Y34575D02*X145000Y36000D01*
Y39000D01*
X146500Y40500D01*
X143425Y31425D02*X149000Y37000D01*
X152500D01*
X143276Y28276D02*X148500Y33500D01*
X29500Y74000D02*X41000D01*
X23500Y74500D02*Y50500D01*
X26000Y48000D01*
X40000Y74500D02*Y77500D01*
X41000Y78500D01*
X26000Y48000D02*X36500D01*
G54D13*X62500Y59000D02*Y64957D01*
G54D12*X36500Y28000D02*Y17500D01*
X39000Y15000D01*
X61500D01*
X46500Y33000D02*Y23500D01*
X48500Y21500D01*
X67500D01*
G54D15*X233500Y60500D02*Y64500D01*
Y73500D02*Y70500D01*
G54D12*X239000Y76000D02*Y65500D01*
X237500Y64000D01*
X233500D01*
G54D15*X218000Y74500D02*X232500D01*
X233500Y73500D01*
G54D12*X213500Y69500D02*X223000D01*
X213500Y64500D02*X223000D01*
G54D15*X218500Y59500D02*X232500D01*
X233500Y60500D01*
X219500Y59500D02*X215500D01*
G54D12*X209500Y78000D02*X237000D01*
X239000Y76000D01*
X207000Y75500D02*X209500Y78000D01*
X198000Y69500D02*X205000D01*
X207000Y71500D01*
Y75500D01*
G54D15*X219500Y74500D02*X212000D01*
X210000Y72500D01*
Y69500D01*
Y70000D02*Y59500D01*
G54D12*X204500Y74500D02*X179000D01*
X177500Y73000D01*
X204500Y59500D02*X193000D01*
G54D15*X215500D02*X198000Y42000D01*
X210000Y59500D02*X190500Y40000D01*
G54D12*X194000Y64500D02*X203500D01*
X177000Y47000D02*X179500Y49500D01*
X185500Y52500D02*X187000Y51000D01*
X179500Y49500D02*Y65500D01*
X181500Y67500D01*
X191000D01*
X194000Y64500D01*
X185500Y62500D02*Y52500D01*
X187000Y51000D02*X190500D01*
X164000Y56500D02*Y51043D01*
X170000Y46000D02*X158500D01*
X161000Y56500D02*X164000D01*
X156000Y47000D02*X159000Y50000D01*
X155000Y49000D02*X157000Y51000D01*
X156524Y44024D02*X158500Y46000D01*
X159000Y50000D02*Y54500D01*
X161000Y56500D01*
X157000Y51000D02*Y55500D01*
X131894Y67500D02*X112043D01*
G54D16*X110957Y73500D02*X111000Y73543D01*
G54D12*X112043Y67500D02*X112000Y67457D01*
X109976Y51779D02*Y66457D01*
X113126Y51779D02*Y58626D01*
X116500Y62000D01*
G54D17*X122575Y51779D02*Y41575D01*
X116275Y51779D02*Y41725D01*
X125724Y45776D02*X126000Y45500D01*
X119425Y51779D02*Y55925D01*
X120500Y57000D01*
X125724Y45776D02*Y55776D01*
X124500Y57000D01*
X120500D02*X124500D01*
G54D12*X157000Y55500D02*X161500Y60000D01*
X160500Y59000D02*X163500Y62000D01*
X174500D01*
X176000Y63500D01*
Y71500D01*
Y56000D02*X172000D01*
X171000Y55000D01*
X145606Y62000D02*X151106Y67500D01*
X116500Y62000D02*X145606D01*
X171000Y55000D02*Y51500D01*
X151106Y67500D02*X170957D01*
X171000Y67457D01*
G54D16*X112000Y73543D02*X171000D01*
G54D12*X176000Y71500D02*X178000Y73500D01*
G54D15*X141500D02*Y67500D01*
G54D17*X122575Y14221D02*Y21425D01*
X119425Y14221D02*Y23425D01*
X122575Y21425D02*X122500Y21500D01*
G54D12*X107500Y23500D02*Y19500D01*
X106000Y18000D01*
X102000D01*
X105500Y13000D02*X109977D01*
G54D17*X113126Y14221D02*Y23126D01*
G54D12*X122575Y13925D02*Y10575D01*
X121500Y9500D01*
Y6543D01*
X96000Y20500D02*Y18000D01*
X70000Y19000D02*Y15000D01*
X83500Y8000D02*Y12500D01*
X81000Y15000D01*
X67500Y21500D02*X70000Y19000D01*
Y8000D02*Y4500D01*
X72000Y2500D01*
X81000Y15000D02*Y21500D01*
X94000Y28000D02*X94500D01*
X87500Y26000D02*X96000Y34500D01*
X97425Y31425D02*X94000Y28000D01*
X87500Y20500D02*Y26000D01*
G54D15*X60500Y8000D02*X70500D01*
G54D12*X72000Y2500D02*X92000D01*
X93500Y4000D01*
Y8000D01*
X41000Y78500D02*X79000D01*
X47000Y74000D02*X54000D01*
X68500Y72000D02*X56000D01*
X54000Y74000D02*X56000Y72000D01*
X79000Y78500D02*X81000Y76500D01*
G54D15*Y76000D02*Y70500D01*
G54D16*X63500Y66000D02*X96000D01*
G54D15*X81000Y76000D02*X82500Y77500D01*
G54D12*X102221Y21976D02*X97476D01*
X102221Y25126D02*X105874D01*
X107500Y23500D01*
X102000Y34500D02*X98000D01*
X102221Y31425D02*X97425D01*
X102221Y28275D02*X99275D01*
X97476Y21976D02*X96000Y20500D01*
Y34500D02*X99500D01*
G54D15*X106500Y48000D02*X114000Y40500D01*
G54D12*X99275Y28275D02*X94000Y23000D01*
G54D15*X82500Y77500D02*X104500D01*
X106500Y75500D01*
G54D16*X96000Y66000D02*X101000Y71000D01*
G54D15*X106500Y75500D02*Y48000D01*
G54D12*X101000Y61000D02*Y59500D01*
X97500Y56000D01*
X77500D01*
X74500Y59000D01*
X68500D01*
G54D13*X46500Y43000D02*X62500Y59000D01*
G54D18*X221500Y40500D03*
D03*
G54D19*X268500Y50500D03*
Y70500D03*
G54D20*X281500Y18000D03*
Y63000D03*
G54D19*X268500Y10500D03*
Y30500D03*
G54D11*G36*
X147606Y71000D02*Y64000D01*
X154606D01*
Y71000D01*
X147606D01*
G37*
G54D14*X131894Y67500D03*
X256500Y23000D03*
Y33000D03*
Y43000D03*
Y53000D03*
X246500Y28000D03*
Y38000D03*
Y48000D03*
Y58000D03*
G54D20*X11500Y60500D03*
G54D14*X46500Y53000D03*
X36500Y48000D03*
X46500Y43000D03*
X36500Y38000D03*
X46500Y33000D03*
X36500Y28000D03*
G54D20*X11500Y20500D03*
G54D18*X71000Y40500D03*
G54D11*G36*
X78000Y64000D02*Y58000D01*
X84000D01*
Y64000D01*
X78000D01*
G37*
G54D21*X91000Y61000D03*
X101000D03*
X81000Y71000D03*
X91000D03*
X101000D03*
G54D11*G36*
X90500Y11000D02*Y5000D01*
X96500D01*
Y11000D01*
X90500D01*
G37*
G54D21*X83500Y8000D03*
G54D22*X47543Y74393D02*Y73607D01*
X40457Y74393D02*Y73607D01*
X22957Y74393D02*Y73607D01*
X30043Y74393D02*Y73607D01*
X62107Y72043D02*X62893D01*
X62107Y64957D02*X62893D01*
X69607Y15043D02*X70393D01*
X69607Y7957D02*X70393D01*
X60107Y15043D02*X60893D01*
X60107Y7957D02*X60893D01*
X80457Y20893D02*Y20107D01*
X87543Y20893D02*Y20107D01*
X111607Y66457D02*X112393D01*
X111607Y73543D02*X112393D01*
G54D23*X132023Y53992D02*Y49566D01*
X128874Y53992D02*Y49566D01*
X125724Y53992D02*Y49566D01*
X122575Y53992D02*Y49566D01*
X119425Y53992D02*Y49566D01*
X116275Y53992D02*Y49566D01*
X113126Y53992D02*Y49566D01*
X109976Y53992D02*Y49566D01*
G54D22*X120457Y5893D02*Y5107D01*
X127543Y5893D02*Y5107D01*
G54D23*X109977Y16434D02*Y12008D01*
X113126Y16434D02*Y12008D01*
X116276Y16434D02*Y12008D01*
X119425Y16434D02*Y12008D01*
X122575Y16434D02*Y12008D01*
X125725Y16434D02*Y12008D01*
X128874Y16434D02*Y12008D01*
X132024Y16434D02*Y12008D01*
X100008Y44023D02*X104434D01*
X100008Y40874D02*X104434D01*
X100008Y37724D02*X104434D01*
X100008Y34575D02*X104434D01*
X100008Y31425D02*X104434D01*
X100008Y28275D02*X104434D01*
X100008Y25126D02*X104434D01*
X100008Y21976D02*X104434D01*
X137566Y21977D02*X141992D01*
X137566Y25126D02*X141992D01*
X137566Y28276D02*X141992D01*
X137566Y31425D02*X141992D01*
X137566Y34575D02*X141992D01*
X137566Y37725D02*X141992D01*
X137566Y40874D02*X141992D01*
X137566Y44024D02*X141992D01*
G54D22*X163957Y51393D02*Y50607D01*
X171043Y51393D02*Y50607D01*
X170607Y66457D02*X171393D01*
X170607Y73543D02*X171393D01*
X184319Y73405D02*X186681D01*
X184319Y61595D02*X186681D01*
X189957Y51393D02*Y50607D01*
X163957Y41393D02*Y40607D01*
X150607Y16957D02*X151393D01*
X150607Y24043D02*X151393D01*
G54D24*X161688Y17547D02*Y13453D01*
X167594Y25263D02*Y13453D01*
G54D25*Y28887D02*Y26997D01*
G54D22*X171043Y41393D02*Y40607D01*
X166457Y5893D02*Y5107D01*
X173543Y5893D02*Y5107D01*
G54D26*X192000Y12307D02*Y6008D01*
Y31992D02*Y25693D01*
G54D24*X173500Y17547D02*Y13453D01*
G54D27*X221600Y7100D02*Y5900D01*
G54D22*X220595Y18681D02*Y16319D01*
X210607Y12957D02*X211393D01*
X210607Y20043D02*X211393D01*
G54D27*X234500Y7100D02*Y5900D01*
G54D22*X232405Y18681D02*Y16319D01*
X233107Y71043D02*X233893D01*
X233107Y63957D02*X233893D01*
G54D28*X218500Y64500D02*X225000D01*
X218500Y69500D02*X225000D01*
X218500Y74500D02*X225000D01*
X198000Y59500D02*X204500D01*
G54D22*X197043Y51393D02*Y50607D01*
G54D28*X218500Y59500D02*X225000D01*
X198000Y74500D02*X204500D01*
X198000Y69500D02*X204500D01*
X198000Y64500D02*X204500D01*
G54D29*X214500D03*
Y69500D03*
X190500Y40000D03*
X193500Y43000D03*
X193000Y59500D03*
X238000Y17500D03*
X164000Y56500D03*
X126000Y45500D03*
X149000Y40500D03*
X176000Y56000D03*
X68500Y59000D03*
Y72000D03*
X157000Y14000D03*
Y18500D03*
Y25000D03*
Y29500D03*
X152500Y37000D03*
X141500Y67500D03*
X157500Y37000D03*
X198000Y25500D03*
Y30500D03*
X182500Y25500D03*
Y30500D03*
X96000Y18000D03*
X201500Y16500D03*
X102000Y18000D03*
X105500Y13000D03*
X123500Y21500D03*
X94000Y23000D03*
Y28000D03*
G54D16*G54D30*G54D31*G54D32*G54D31*G54D16*G54D33*G54D32*G54D33*G54D32*G54D30*G54D34*M02*
