G04 start of page 6 for group -4062 idx -4062 *
G04 Title: (unknown), soldermask *
G04 Creator: pcb 20110918 *
G04 CreationDate: Sat 02 Feb 2013 06:53:47 PM GMT UTC *
G04 For: petersen *
G04 Format: Gerber/RS-274X *
G04 PCB-Dimensions: 293000 81000 *
G04 PCB-Coordinate-Origin: lower left *
%MOIN*%
%FSLAX25Y25*%
%LNBOTTOMMASK*%
%ADD81C,0.0660*%
%ADD80C,0.0750*%
%ADD79C,0.0760*%
%ADD78C,0.0001*%
%ADD77C,0.1500*%
%ADD76C,0.0860*%
%ADD75C,0.2937*%
%ADD74C,0.2997*%
G54D74*X221500Y40500D03*
G54D75*D03*
G54D76*X268500Y50500D03*
Y70500D03*
G54D77*X281500Y18000D03*
Y63000D03*
G54D76*X268500Y10500D03*
Y30500D03*
G54D78*G36*
X147306Y71300D02*Y63700D01*
X154906D01*
Y71300D01*
X147306D01*
G37*
G54D79*X131894Y67500D03*
X256500Y23000D03*
Y33000D03*
Y43000D03*
Y53000D03*
X246500Y28000D03*
Y38000D03*
Y48000D03*
Y58000D03*
G54D77*X11500Y60500D03*
G54D80*X46500Y53000D03*
X36500Y48000D03*
X46500Y43000D03*
X36500Y38000D03*
X46500Y33000D03*
X36500Y28000D03*
G54D77*X11500Y20500D03*
G54D74*X71000Y40500D03*
G54D78*G36*
X77700Y64300D02*Y57700D01*
X84300D01*
Y64300D01*
X77700D01*
G37*
G54D81*X91000Y61000D03*
X101000D03*
X81000Y71000D03*
X91000D03*
X101000D03*
G54D78*G36*
X90200Y11300D02*Y4700D01*
X96800D01*
Y11300D01*
X90200D01*
G37*
G54D81*X83500Y8000D03*
M02*
