M48
INCH
T58C0.038
T57C0.030
T56C0.020
T55C0.128
T54C0.048
T53C0.129
%
T56
X015111Y006750
X013189Y006750
X021450Y006450
X021450Y006950
X019050Y004000
X019350Y004300
X019300Y005950
X023800Y001750
X016400Y005650
X012600Y004550
X014900Y004050
X017600Y005600
X006850Y005900
X006850Y007200
X015700Y001400
X015700Y001850
X015700Y002500
X015700Y002950
X015250Y003700
X014150Y006750
X015750Y003700
X019800Y002550
X019800Y003050
X018250Y002550
X018250Y003050
X009600Y001800
X020150Y001650
X010200Y001800
X010550Y001300
X012350Y002150
X009400Y002300
X009400Y002800
T57
X025650Y002300
X025650Y003300
X025650Y004300
X025650Y005300
X024650Y002800
X024650Y003800
X024650Y004800
X024650Y005800
X004650Y005300
X003650Y004800
X004650Y004300
X003650Y003800
X004650Y003300
X003650Y002800
T58
X008100Y006100
X009100Y006100
X010100Y006100
X008100Y007100
X009100Y007100
X010100Y007100
X009350Y000800
X008350Y000800
T54
X026850Y005050
X026850Y007050
X026850Y001050
X026850Y003050
T55
X028150Y001800
X028150Y006300
X001150Y006050
X001150Y002050
T53
X022150Y004050
X022150Y004050
X007100Y004050
M30
