G04 start of page 5 for group -4063 idx -4063 *
G04 Title: (unknown), componentmask *
G04 Creator: pcb 20110918 *
G04 CreationDate: Sat 02 Feb 2013 06:53:47 PM GMT UTC *
G04 For: petersen *
G04 Format: Gerber/RS-274X *
G04 PCB-Dimensions: 293000 81000 *
G04 PCB-Coordinate-Origin: lower left *
%MOIN*%
%FSLAX25Y25*%
%LNTOPMASK*%
%ADD73R,0.0300X0.0300*%
%ADD72R,0.0420X0.0420*%
%ADD71R,0.0690X0.0690*%
%ADD70R,0.1005X0.1005*%
%ADD69R,0.0438X0.0438*%
%ADD68R,0.0217X0.0217*%
%ADD67R,0.0572X0.0572*%
%ADD66C,0.0660*%
%ADD65C,0.0750*%
%ADD64C,0.0760*%
%ADD63C,0.0001*%
%ADD62C,0.1500*%
%ADD61C,0.0860*%
%ADD60C,0.2937*%
%ADD59C,0.2997*%
G54D59*X221500Y40500D03*
G54D60*D03*
G54D61*X268500Y50500D03*
Y70500D03*
G54D62*X281500Y18000D03*
Y63000D03*
G54D61*X268500Y10500D03*
Y30500D03*
G54D63*G36*
X147306Y71300D02*Y63700D01*
X154906D01*
Y71300D01*
X147306D01*
G37*
G54D64*X131894Y67500D03*
X256500Y23000D03*
Y33000D03*
Y43000D03*
Y53000D03*
X246500Y28000D03*
Y38000D03*
Y48000D03*
Y58000D03*
G54D62*X11500Y60500D03*
G54D65*X46500Y53000D03*
X36500Y48000D03*
X46500Y43000D03*
X36500Y38000D03*
X46500Y33000D03*
X36500Y28000D03*
G54D62*X11500Y20500D03*
G54D59*X71000Y40500D03*
G54D63*G36*
X77700Y64300D02*Y57700D01*
X84300D01*
Y64300D01*
X77700D01*
G37*
G54D66*X91000Y61000D03*
X101000D03*
X81000Y71000D03*
X91000D03*
X101000D03*
G54D63*G36*
X90200Y11300D02*Y4700D01*
X96800D01*
Y11300D01*
X90200D01*
G37*
G54D66*X83500Y8000D03*
G54D67*X47543Y74393D02*Y73607D01*
X40457Y74393D02*Y73607D01*
X22957Y74393D02*Y73607D01*
X30043Y74393D02*Y73607D01*
X62107Y72043D02*X62893D01*
X62107Y64957D02*X62893D01*
X69607Y15043D02*X70393D01*
X69607Y7957D02*X70393D01*
X60107Y15043D02*X60893D01*
X60107Y7957D02*X60893D01*
X80457Y20893D02*Y20107D01*
X87543Y20893D02*Y20107D01*
X111607Y66457D02*X112393D01*
X111607Y73543D02*X112393D01*
G54D68*X132023Y53992D02*Y49566D01*
X128874Y53992D02*Y49566D01*
X125724Y53992D02*Y49566D01*
X122575Y53992D02*Y49566D01*
X119425Y53992D02*Y49566D01*
X116275Y53992D02*Y49566D01*
X113126Y53992D02*Y49566D01*
X109976Y53992D02*Y49566D01*
G54D67*X120457Y5893D02*Y5107D01*
X127543Y5893D02*Y5107D01*
G54D68*X109977Y16434D02*Y12008D01*
X113126Y16434D02*Y12008D01*
X116276Y16434D02*Y12008D01*
X119425Y16434D02*Y12008D01*
X122575Y16434D02*Y12008D01*
X125725Y16434D02*Y12008D01*
X128874Y16434D02*Y12008D01*
X132024Y16434D02*Y12008D01*
X100008Y44023D02*X104434D01*
X100008Y40874D02*X104434D01*
X100008Y37724D02*X104434D01*
X100008Y34575D02*X104434D01*
X100008Y31425D02*X104434D01*
X100008Y28275D02*X104434D01*
X100008Y25126D02*X104434D01*
X100008Y21976D02*X104434D01*
X137566Y21977D02*X141992D01*
X137566Y25126D02*X141992D01*
X137566Y28276D02*X141992D01*
X137566Y31425D02*X141992D01*
X137566Y34575D02*X141992D01*
X137566Y37725D02*X141992D01*
X137566Y40874D02*X141992D01*
X137566Y44024D02*X141992D01*
G54D67*X163957Y51393D02*Y50607D01*
X171043Y51393D02*Y50607D01*
X170607Y66457D02*X171393D01*
X170607Y73543D02*X171393D01*
X184319Y73405D02*X186681D01*
X184319Y61595D02*X186681D01*
X189957Y51393D02*Y50607D01*
X163957Y41393D02*Y40607D01*
X150607Y16957D02*X151393D01*
X150607Y24043D02*X151393D01*
G54D69*X161688Y17547D02*Y13453D01*
X167594Y25263D02*Y13453D01*
G54D70*Y28887D02*Y26997D01*
G54D67*X171043Y41393D02*Y40607D01*
X166457Y5893D02*Y5107D01*
X173543Y5893D02*Y5107D01*
G54D71*X192000Y12307D02*Y6008D01*
Y31992D02*Y25693D01*
G54D69*X173500Y17547D02*Y13453D01*
G54D72*X221600Y7100D02*Y5900D01*
G54D67*X220595Y18681D02*Y16319D01*
X210607Y12957D02*X211393D01*
X210607Y20043D02*X211393D01*
G54D72*X234500Y7100D02*Y5900D01*
G54D67*X232405Y18681D02*Y16319D01*
X233107Y71043D02*X233893D01*
X233107Y63957D02*X233893D01*
G54D73*X218500Y64500D02*X225000D01*
X218500Y69500D02*X225000D01*
X218500Y74500D02*X225000D01*
X198000Y59500D02*X204500D01*
G54D67*X197043Y51393D02*Y50607D01*
G54D73*X218500Y59500D02*X225000D01*
X198000Y74500D02*X204500D01*
X198000Y69500D02*X204500D01*
X198000Y64500D02*X204500D01*
M02*
